<svg xmlns="http://www.w3.org/2000/svg" width="473" height="255" viewBox="0 0 473 255">
  <g id="mission-1" transform="translate(-800 -1867.984)">
    <path id="패스_58" data-name="패스 58" d="M-19.045-22.367h-3.5V-7.793h3.5V-13.48h3.363v-2.9h-3.363ZM-31.869-6.836h-3.473V2.242h16.3V-6.836h-3.5v1.887h-9.324Zm0,6.344V-2.27h9.324V-.492Zm7.848-19.687h-5.633v-2.352h-3.473v2.352h-5.66v2.734h14.766ZM-31.4-16.734c-3.664,0-6.18,1.75-6.18,4.4s2.516,4.4,6.18,4.4c3.609,0,6.125-1.75,6.125-4.4S-27.795-16.734-31.4-16.734Zm0,2.57c1.668-.027,2.816.656,2.816,1.832,0,1.2-1.148,1.859-2.816,1.859s-2.789-.656-2.762-1.859C-34.193-13.508-33.072-14.191-31.4-14.164Zm37.68-8.2H2.8V2.57H6.275Zm-7.711,2.078h-11.84v2.816H-4.99v4.02h-8.258v10.2h2.242A68.939,68.939,0,0,0,1.326-4.129l-.3-2.816a65.511,65.511,0,0,1-10.664.82v-4.566h8.2Zm25.4-.684H10.459v2.762h5a8.133,8.133,0,0,1-5.988,7.684l1.777,2.762a9.757,9.757,0,0,0,6.043-5.441A9.24,9.24,0,0,0,23.01-8.285l1.723-2.68c-3.937-1.3-5.687-4.307-5.715-7.246h4.949Zm6.617,14.52H13.494v2.789H27.111v6.18h3.473Zm0-15.914H27.111v5.988H23.256v2.844h3.855v5.988h3.473Zm-61.838,41h-3.5V43.461h3.5V31.047h3.527V28.176h-3.527ZM-37.9,21.176h-11.84V24.02h8.285c-.656,5.551-3.814,9.516-9.707,12.469l1.969,2.68C-40.824,35.066-37.926,28.613-37.9,21.176Zm24.527-.984H-24.992v2.816h7.875c-.547,3.377-3.691,6.166-9.3,7.6L-25.1,33.4c5.359-1.422,9.037-4.129,10.719-7.984h5.2V27.93h-5.66v2.789h5.66v2.707h3.473V18.66H-9.188v4.02h-4.375A16.247,16.247,0,0,0-13.371,20.191Zm7.656,14.246H-22.8v2.734H-9.188v6.289h3.473Zm31.2-15.8H22.176V43.516h3.309Zm-5.086.41H17.117v8.121H13.836V29.98h3.281V42.367H20.4ZM11.84,25.3v-1.34h3.773V21.176H4.4v2.789H8.477V25.3c0,4.211-1.367,8.7-5.031,10.937l2.105,2.57A11.435,11.435,0,0,0,10.2,32.059a10.613,10.613,0,0,0,4.512,6.207l2.051-2.57C13.125,33.617,11.84,29.434,11.84,25.3Zm36.066-6.672h-3.5V36.762h3.5V28.668h3.363v-2.9H47.906Zm.9,21.656H35.246V34.848H31.773v8.23H48.809ZM35.164,20.246c-3.828,0-6.836,2.625-6.836,6.316,0,3.637,3.008,6.316,6.836,6.316,3.8,0,6.781-2.68,6.781-6.316C41.945,22.871,38.965,20.246,35.164,20.246Zm0,3.035a3.156,3.156,0,0,1,3.391,3.281,3.2,3.2,0,0,1-3.391,3.281,3.187,3.187,0,0,1-3.391-3.281A3.142,3.142,0,0,1,35.164,23.281Z" transform="translate(927 1986.984)" fill="#fff"/>
    <path id="패스_59" data-name="패스 59" d="M-25.58-8.914h-3.473v3.883c-2.324.082-4.525.1-6.4.109l.41,2.816A84.949,84.949,0,0,0-19.264-3.227l-.273-2.543c-1.941.287-4.006.479-6.043.6Zm5.141-10.527H-25.58v-2.707h-3.473v2.707h-5.113v2.816h5.031c-.246,2.516-2.064,4.854-5.824,5.852l1.641,2.625A8.975,8.975,0,0,0-27.3-12.77,9.114,9.114,0,0,0-21.26-8.34l1.586-2.707c-3.746-.916-5.619-3.172-5.852-5.578h5.086Zm5.8-2.926h-3.473V2.57h3.473Zm12.359,3.91v-2.6h-3.5v2.27a8.3,8.3,0,0,1-5.961,8.121L-9.857-7.93a9.521,9.521,0,0,0,5.852-5.441A9.19,9.19,0,0,0,1.545-8.613L3.4-11.32C-.533-12.551-2.283-15.449-2.283-18.457Zm10.664-3.91h-3.5V-7.6h3.5v-6.043h3.363v-2.9H8.381ZM.232-7.109C-5.018-7.109-8.3-5.332-8.3-2.3-8.3.766-5.018,2.516.232,2.516c5.141,0,8.395-1.75,8.395-4.812C8.627-5.332,5.373-7.109.232-7.109Zm0,2.734c3.227,0,4.949.711,4.949,2.078C5.182-.875,3.459-.219.232-.219-3.049-.219-4.826-.875-4.8-2.3-4.826-3.664-3.049-4.375.232-4.375ZM20.9-20.7c-3.937-.027-6.918,2.543-6.918,6.1,0,3.582,2.98,6.125,6.918,6.125s6.891-2.543,6.891-6.125C27.795-18.156,24.842-20.727,20.9-20.7Zm0,3.008c2,0,3.473,1.148,3.5,3.09-.027,1.969-1.531,3.09-3.5,3.09s-3.473-1.121-3.445-3.09C17.432-16.543,18.936-17.691,20.9-17.691Zm12.852-4.676H30.283V2.57h3.473ZM12.947-5.359l.41,2.844A84.949,84.949,0,0,0,29.135-3.637l-.273-2.516A117.483,117.483,0,0,1,12.947-5.359ZM-.766,30.281h-22.7v2.762h9.6v2.133h-6.973v8.066H-3.473V35.176h-6.918V33.043H-.766ZM-2.789,19.316H-21.465v2.789h3.227v3.8H-21.3V28.7H-2.953V25.906h-3.09v-3.8h3.254Zm-14.6,18.566h10.5v2.57h-10.5Zm2.652-11.977v-3.8h5.2v3.8Zm36.285-7.273H18.074V31.4h3.473Zm.027,13.754H4.867v2.652H18.1v1.5H4.922v6.809H22.258v-2.68H8.34V39.031H21.574ZM15.449,19.781H1.777V22.57H6.863C6.631,25.223,4.73,27.848.848,28.914l1.586,2.762A9.661,9.661,0,0,0,8.75,26.563a9.226,9.226,0,0,0,5.988,4.594l1.668-2.68c-3.828-1.012-5.687-3.418-5.934-5.906h4.977Z" transform="translate(1145 1986.984)" fill="#fff"/>
    <path id="타원_27" data-name="타원 27" d="M127.5,2a126.439,126.439,0,0,0-25.295,2.55A124.8,124.8,0,0,0,57.333,23.432,125.872,125.872,0,0,0,11.862,78.65,124.855,124.855,0,0,0,4.55,102.205a126.744,126.744,0,0,0,0,50.589,124.8,124.8,0,0,0,18.883,44.872A125.872,125.872,0,0,0,78.65,243.138a124.855,124.855,0,0,0,23.555,7.312,126.744,126.744,0,0,0,50.589,0,124.8,124.8,0,0,0,44.872-18.883,125.872,125.872,0,0,0,45.472-55.218,124.856,124.856,0,0,0,7.312-23.555,126.744,126.744,0,0,0,0-50.589,124.8,124.8,0,0,0-18.883-44.872A125.872,125.872,0,0,0,176.35,11.862,124.856,124.856,0,0,0,152.795,4.55,126.439,126.439,0,0,0,127.5,2m0-2A127.5,127.5,0,1,1,0,127.5,127.5,127.5,0,0,1,127.5,0Z" transform="translate(800 1867.984)" fill="#fff"/>
    <path id="패스_46" data-name="패스 46" d="M127.5,2a126.439,126.439,0,0,0-25.295,2.55A124.8,124.8,0,0,0,57.333,23.432,125.872,125.872,0,0,0,11.862,78.65,124.855,124.855,0,0,0,4.55,102.205a126.744,126.744,0,0,0,0,50.589,124.8,124.8,0,0,0,18.883,44.872A125.872,125.872,0,0,0,78.65,243.138a124.855,124.855,0,0,0,23.555,7.312,126.744,126.744,0,0,0,50.589,0,124.8,124.8,0,0,0,44.872-18.883,125.872,125.872,0,0,0,45.472-55.218,124.856,124.856,0,0,0,7.312-23.555,126.744,126.744,0,0,0,0-50.589,124.8,124.8,0,0,0-18.883-44.872A125.872,125.872,0,0,0,176.35,11.862,124.856,124.856,0,0,0,152.795,4.55,126.439,126.439,0,0,0,127.5,2m0-2A127.5,127.5,0,1,1,0,127.5,127.5,127.5,0,0,1,127.5,0Z" transform="translate(1018 1867.984)" fill="#fff"/>
  </g>
</svg>
