<svg xmlns="http://www.w3.org/2000/svg" width="573" height="255" viewBox="0 0 573 255">
  <g id="mission-2" transform="translate(-674 -2980)">
    <g id="그룹_78" data-name="그룹 78" transform="translate(-146 1112.016)">
      <path id="패스_52" data-name="패스 52" d="M-35.042-20.144c-5.089,0-8.859,2.558-8.833,6.434-.026,3.573,3.045,5.959,7.383,6.381v4.377h-9.387v2.4H-24.1v-2.4h-9.492V-7.33c4.364-.422,7.436-2.808,7.436-6.381C-26.156-17.587-29.927-20.144-35.042-20.144Zm0,2.373c3.533-.026,6.012,1.556,6.012,4.061,0,2.584-2.479,4.113-6.012,4.113-3.48,0-5.985-1.529-5.959-4.113C-41.027-16.216-38.522-17.8-35.042-17.771ZM-.765-2.979H-22.544V-.527H-.765Zm-1.9-16.295H-20.751v2.347h3.428v7.594h-3.349v2.32h17.93v-2.32h-3.4v-7.594h3.48ZM-14.4-9.334v-7.594h5.353v7.594ZM19.459-21.489h-2.9V2.373h2.9V-9.888h3.665V-12.34H19.459Zm-6.75,2.083H1.74v2.373H9.782v4.271H1.793v9.519H3.744A60.268,60.268,0,0,0,15-4.061l-.264-2.373a57.885,57.885,0,0,1-10.046.765v-4.746h8.016ZM43.98-21.463H41.027V-4.245H43.98ZM44.64-.5H31.166V-5.985H28.213V1.872H44.64ZM30.981-19.907c-3.639,0-6.434,2.5-6.434,5.959,0,3.533,2.795,5.985,6.434,5.985,3.612,0,6.407-2.452,6.407-5.985C37.389-17.4,34.594-19.907,30.981-19.907Zm0,2.558a3.345,3.345,0,0,1,3.533,3.4,3.336,3.336,0,0,1-3.533,3.428,3.315,3.315,0,0,1-3.56-3.428A3.324,3.324,0,0,1,30.981-17.35ZM-12.432,37.941H-34.211v2.426h21.779ZM-28.885,21.119h-2.927V33.7h16.9V21.119h-2.927v4.087H-28.885Zm0,10.283V27.5h11.048v3.9ZM9.505,19.537H6.71v6.882H4.232V19.985H1.49v16.69H4.232V28.818H6.71v8.411H9.505ZM10.165,40.5H-3.52V35.568H-6.447v7.3H10.165Zm-11-19.011H-9.9v2.32h6.249V26.5H-9.875v7.356H-8.24a47.666,47.666,0,0,0,8.78-.606L.277,30.9a38.741,38.741,0,0,1-7.3.633V28.713h6.2Zm32.643,9.2H18V23.967H31.627V21.594H15.1V33.037H31.812Zm2.426,7.2H12.458v2.426H34.238Z" transform="translate(927 1986.984)" fill="#fff" opacity="0.589"/>
      <path id="패스_51" data-name="패스 51" d="M-12.485-9.07H-21.9V-11.18c4.351-.316,7.093-2.07,7.119-4.825-.026-2.979-3.4-4.825-8.6-4.825s-8.6,1.846-8.6,4.825c0,2.755,2.769,4.509,7.119,4.825V-9.07h-9.36V-6.7h21.727ZM-14.937-.5H-28.6V-5.062h-2.927V1.872h16.585ZM-23.375-18.51c3.48.026,5.563.923,5.563,2.5,0,1.661-2.083,2.5-5.563,2.5-3.454,0-5.563-.844-5.537-2.5C-28.938-17.587-26.829-18.483-23.375-18.51ZM7.791-21.489h-2.9V2.373h2.9V-9.888h3.665V-12.34H7.791Zm-6.75,2.083H-9.927v2.373h8.042v4.271H-9.875v9.519h1.951A60.268,60.268,0,0,0,3.335-4.061L3.072-6.434a57.885,57.885,0,0,1-10.046.765v-4.746H1.041Zm31.271-2.057H29.36V-4.245h2.953ZM32.972-.5H19.5V-5.985H16.545V1.872H32.972ZM19.314-19.907c-3.639,0-6.434,2.5-6.434,5.959,0,3.533,2.795,5.985,6.434,5.985,3.612,0,6.407-2.452,6.407-5.985C25.721-17.4,22.926-19.907,19.314-19.907Zm0,2.558a3.345,3.345,0,0,1,3.533,3.4,3.336,3.336,0,0,1-3.533,3.428,3.315,3.315,0,0,1-3.56-3.428A3.324,3.324,0,0,1,19.314-17.35Zm-45.365,36.86H-29V43.373h2.953Zm-12.841,1.74c-3.612,0-6.223,3.27-6.223,8.411,0,5.194,2.61,8.437,6.223,8.437,3.586,0,6.2-3.243,6.223-8.437C-32.7,24.521-35.306,21.251-38.892,21.251Zm0,2.637c2,0,3.375,2.136,3.375,5.774,0,3.665-1.371,5.8-3.375,5.8-2.03,0-3.4-2.136-3.4-5.8C-42.293,26.023-40.922,23.888-38.892,23.888Zm28.529-2.03H-21.3v2.373h8.016a17.918,17.918,0,0,1-.606,3.56l-8.648.527.422,2.5,7.3-.686c-1.411,2.834-3.876,5.208-7.831,7.251l1.608,2.241C-12.5,35.226-10.389,29.056-10.362,21.857Zm7.778-2.347H-5.511v9.308h-4.9v2.4h4.9V43.347h2.927Zm15.5,2.215H1.687V37.467H12.92V30.295h4.957V43.373h2.9V19.511h-2.9v8.411H12.92ZM4.614,24.02h5.432V35.146H4.614Zm39.472-4.509H41.159v2.057H36.967v2.268h4.192v1.872H36.967V28h4.192V31.93h2.927Zm0,13.368H28.4v2.294H41.186v1.661H28.424v6.223H44.851V40.763H31.3V38.97H44.086ZM32.774,22.385V20.117H29.821v2.268a7.862,7.862,0,0,1-5.8,7.462l1.5,2.268A9.473,9.473,0,0,0,31.3,26.709a9.221,9.221,0,0,0,5.537,5.062L38.364,29.5A7.542,7.542,0,0,1,32.774,22.385ZM-14.489,61.2H-32.26v2.215h3.27v3.612h-3.138v2.215h17.508V67.023h-3.138V63.411h3.27Zm2,9.545H-34.211v2.32h21.727ZM-15.2,74.67H-31.654v2.136h13.579v1.5H-31.627v5.827h17.086V81.947H-28.753V80.339H-15.2Zm-10.863-7.646V63.411h5.353v3.612ZM9.505,60.537H6.71V66.47H4.232V60.985H1.49V74.617H4.232V68.843H6.71v7.778H9.505ZM-.831,62.251H-9.9v2.373h6.249v2.531H-9.875v7.2H-8.24a41.031,41.031,0,0,0,8.78-.659L.277,71.4a39.8,39.8,0,0,1-7.3.659V69.291h6.2Zm3.639,13.79v-.5H-.119v.5c-.026,2.716-3.059,5.273-7.857,5.906l1.187,2.268c3.718-.541,6.658-2.228,8.147-4.588,1.45,2.36,4.39,4.047,8.121,4.588l1.187-2.268C5.84,81.314,2.808,78.757,2.808,76.041Zm31.377-3.823H24.746V70.029h7.3V67.656H28.912V63.569h3.27V61.223H14.41v2.347h3.27v4.087H14.541v2.373h7.277v2.188h-9.36v2.32H34.185ZM31.548,76.41H15.016v7.646H31.548ZM17.916,78.7H28.7v2.979H17.916Zm2.689-11.048V63.569h5.353v4.087Z" transform="translate(1266 1961.984)" fill="#fff"/>
      <path id="패스_49" data-name="패스 49" d="M107.5,2A106.289,106.289,0,0,0,86.236,4.143,104.911,104.911,0,0,0,48.515,20.017,105.814,105.814,0,0,0,10.29,66.435a104.955,104.955,0,0,0-6.146,19.8,106.548,106.548,0,0,0,0,42.528,104.911,104.911,0,0,0,15.873,37.721A105.814,105.814,0,0,0,66.435,204.71a104.955,104.955,0,0,0,19.8,6.146,106.548,106.548,0,0,0,42.528,0,104.911,104.911,0,0,0,37.721-15.873,105.814,105.814,0,0,0,38.225-46.419,104.955,104.955,0,0,0,6.146-19.8,106.548,106.548,0,0,0,0-42.528,104.911,104.911,0,0,0-15.873-37.721A105.814,105.814,0,0,0,148.565,10.29a104.955,104.955,0,0,0-19.8-6.146A106.29,106.29,0,0,0,107.5,2m0-2A107.5,107.5,0,1,1,0,107.5,107.5,107.5,0,0,1,107.5,0Z" transform="translate(820 1887.984)" fill="#fff" opacity="0.589"/>
      <path id="타원_28" data-name="타원 28" d="M127.5,2a126.439,126.439,0,0,0-25.295,2.55A124.8,124.8,0,0,0,57.333,23.432,125.872,125.872,0,0,0,11.862,78.65,124.855,124.855,0,0,0,4.55,102.205a126.744,126.744,0,0,0,0,50.589,124.8,124.8,0,0,0,18.883,44.872A125.872,125.872,0,0,0,78.65,243.138a124.855,124.855,0,0,0,23.555,7.312,126.744,126.744,0,0,0,50.589,0,124.8,124.8,0,0,0,44.872-18.883,125.872,125.872,0,0,0,45.472-55.218,124.856,124.856,0,0,0,7.312-23.555,126.744,126.744,0,0,0,0-50.589,124.8,124.8,0,0,0-18.883-44.872A125.872,125.872,0,0,0,176.35,11.862,124.856,124.856,0,0,0,152.795,4.55,126.439,126.439,0,0,0,127.5,2m0-2A127.5,127.5,0,1,1,0,127.5,127.5,127.5,0,0,1,127.5,0Z" transform="translate(1138 1867.984)" fill="#fff"/>
    </g>
    <path id="패스_50" data-name="패스 50" d="M2963.6,15740.258v55.8l28.906-28.878Z" transform="translate(-2034.503 -12660.656)" fill="#fff"/>
  </g>
</svg>
