<svg xmlns="http://www.w3.org/2000/svg" width="463" height="311" viewBox="0 0 463 311">
  <g id="mission-3" transform="translate(-742 -3845)">
    <g id="그룹_80" data-name="그룹 80" transform="translate(-201 557.799)">
      <g id="그룹_79" data-name="그룹 79" transform="translate(1013.785 3414.179)">
        <path id="타원_29" data-name="타원 29" d="M91.5,2A89.688,89.688,0,0,0,73.463,3.828a88.736,88.736,0,0,0-32,13.538A89.986,89.986,0,0,0,3.819,73.858a91.395,91.395,0,0,0,0,36.285A89.943,89.943,0,0,0,56.667,174.93a88.671,88.671,0,0,0,16.8,5.242,89.9,89.9,0,0,0,36.075,0,88.736,88.736,0,0,0,32-13.538,89.986,89.986,0,0,0,37.646-56.491,91.395,91.395,0,0,0,0-36.285A89.943,89.943,0,0,0,126.333,9.07a88.671,88.671,0,0,0-16.8-5.242A89.688,89.688,0,0,0,91.5,2m0-2C142.034,0,183,41.19,183,92s-40.966,92-91.5,92S0,142.81,0,92,40.966,0,91.5,0Z" transform="translate(0.215 0.022)" fill="#fff"/>
        <path id="타원_30" data-name="타원 30" d="M91.5,2A89.688,89.688,0,0,0,73.463,3.828a88.736,88.736,0,0,0-32,13.538A89.986,89.986,0,0,0,3.819,73.858a91.395,91.395,0,0,0,0,36.285A89.943,89.943,0,0,0,56.667,174.93a88.671,88.671,0,0,0,16.8,5.242,89.9,89.9,0,0,0,36.075,0,88.736,88.736,0,0,0,32-13.538,89.986,89.986,0,0,0,37.646-56.491,91.395,91.395,0,0,0,0-36.285A89.943,89.943,0,0,0,126.333,9.07a88.671,88.671,0,0,0-16.8-5.242A89.688,89.688,0,0,0,91.5,2m0-2C142.034,0,183,41.19,183,92s-40.966,92-91.5,92S0,142.81,0,92,40.966,0,91.5,0Z" transform="translate(140.215 0.022)" fill="#fff"/>
      </g>
      <path id="타원_31" data-name="타원 31" d="M92,2A90.191,90.191,0,0,0,73.862,3.838,89.233,89.233,0,0,0,41.686,17.452a90.485,90.485,0,0,0-37.857,56.8,91.9,91.9,0,0,0,0,36.486A90.444,90.444,0,0,0,56.972,175.89a89.169,89.169,0,0,0,16.89,5.271,90.4,90.4,0,0,0,36.276,0,89.233,89.233,0,0,0,32.176-13.614,90.485,90.485,0,0,0,37.857-56.8,91.9,91.9,0,0,0,0-36.486A90.444,90.444,0,0,0,127.028,9.11a89.169,89.169,0,0,0-16.89-5.271A90.191,90.191,0,0,0,92,2m0-2c50.81,0,92,41.414,92,92.5S142.81,185,92,185,0,143.586,0,92.5,41.19,0,92,0Z" transform="translate(1083 3287.201)" fill="#fff"/>
      <path id="타원_32" data-name="타원 32" d="M92,2A91.164,91.164,0,0,0,73.858,3.819,89.943,89.943,0,0,0,9.07,56.667a88.671,88.671,0,0,0-5.242,16.8,89.9,89.9,0,0,0,0,36.075,88.736,88.736,0,0,0,13.538,32,89.986,89.986,0,0,0,56.491,37.646,91.395,91.395,0,0,0,36.285,0,89.943,89.943,0,0,0,64.787-52.848,88.671,88.671,0,0,0,5.242-16.8,89.9,89.9,0,0,0,0-36.075,88.736,88.736,0,0,0-13.538-32A89.986,89.986,0,0,0,110.142,3.819,91.164,91.164,0,0,0,92,2m0-2c50.81,0,92,40.966,92,91.5S142.81,183,92,183,0,142.034,0,91.5,41.19,0,92,0Z" transform="translate(1222 3287.201)" fill="#fff"/>
      <path id="타원_33" data-name="타원 33" d="M92,2A91.164,91.164,0,0,0,73.858,3.819,89.943,89.943,0,0,0,9.07,56.667a88.671,88.671,0,0,0-5.242,16.8,89.9,89.9,0,0,0,0,36.075,88.736,88.736,0,0,0,13.538,32,89.986,89.986,0,0,0,56.491,37.646,91.395,91.395,0,0,0,36.285,0,89.943,89.943,0,0,0,64.787-52.848,88.671,88.671,0,0,0,5.242-16.8,89.9,89.9,0,0,0,0-36.075,88.736,88.736,0,0,0-13.538-32A89.986,89.986,0,0,0,110.142,3.819,91.164,91.164,0,0,0,92,2m0-2c50.81,0,92,40.966,92,91.5S142.81,183,92,183,0,142.034,0,91.5,41.19,0,92,0Z" transform="translate(943 3287.201)" fill="#fff"/>
    </g>
    <path id="패스_53" data-name="패스 53" d="M-22.791,0h3.174V-6.47h3.32L-12.83,0h3.54L-13.1-7.007a5.036,5.036,0,0,0,3.174-5.029c0-3.369-2.173-5.64-6.226-5.64h-6.641Zm3.174-9.131v-5.884h2.979c2.393,0,3.467,1.1,3.467,2.979s-1.074,2.905-3.467,2.905ZM-2.039.244A7.244,7.244,0,0,0,2.5-1.294L3.625,0H6.995L4.407-3.027a8.6,8.6,0,0,0,1.538-5.3H3.259a6.617,6.617,0,0,1-.732,3.076L-.72-9.033.4-9.863a4.893,4.893,0,0,0,2.344-4.028c0-2.148-1.709-4-4.492-4a4.3,4.3,0,0,0-4.614,4.37,6.449,6.449,0,0,0,1.807,4.1c-1.965,1.367-3.32,2.661-3.32,4.736C-7.874-1.88-5.652.244-2.039.244ZM-4.822-4.834a3.428,3.428,0,0,1,1.66-2.417l.293-.22L.818-3.247a4.717,4.717,0,0,1-2.759.952A2.618,2.618,0,0,1-4.822-4.834ZM-3.6-13.477a1.865,1.865,0,0,1,1.9-1.855A1.674,1.674,0,0,1,.11-13.745a2.487,2.487,0,0,1-1.416,2.124l-1,.684A4.472,4.472,0,0,1-3.6-13.477ZM14.685,0c5.371,0,8.569-3.345,8.569-8.862,0-5.493-3.2-8.813-8.472-8.813h-6.1V0ZM11.853-2.759V-14.917h2.759c3.589,0,5.469,2,5.469,6.055,0,4.077-1.88,6.1-5.566,6.1Z" transform="translate(832 3947)" fill="#fff"/>
    <path id="패스_54" data-name="패스 54" d="M-14.95-17.3v-2.821h-3.27V-17.3a7.63,7.63,0,0,1-4.746,7.119l1.819,2.584a8.486,8.486,0,0,0,4.614-4.746,7.8,7.8,0,0,0,4.324,3.981l1.793-2.558A6.63,6.63,0,0,1-14.95-17.3ZM-2-21.542h-3.19v5.854h-2V-21.12h-3.138v13.5H-7.2v-5.353h2v6.091H-2Zm-8.2,15c-5.089,0-8.306,1.687-8.306,4.482s3.217,4.482,8.306,4.482c5.062,0,8.306-1.687,8.332-4.482C-1.9-4.852-5.142-6.539-10.2-6.539Zm0,2.5c3.111,0,4.931.686,4.931,1.978S-7.093-.105-10.2-.105c-3.138,0-4.957-.659-4.931-1.951C-15.161-3.349-13.342-4.034-10.2-4.034ZM9.571-17.455v-2.637H6.2v2.61A7.906,7.906,0,0,1,.316-9.729L2.188-7.066a9.524,9.524,0,0,0,5.774-5.247,9.03,9.03,0,0,0,5.458,4.8l1.767-2.637C11.285-11.417,9.545-14.4,9.571-17.455Zm10.178-4.113H16.374V-3.981h3.375v-7.8h3.243v-2.848H19.749Zm.9,20.883H7.594V-5.722H4.166V2H20.645Z" transform="translate(974 3947)" fill="#fff"/>
    <path id="패스_57" data-name="패스 57" d="M-.732-7.52H-20.9v2.2h4.834v7.5h2.783v-7.5H-8.4v7.5H-5.64v-7.5H-.732Zm-10.132-11.6c-4.712.024-7.935,1.929-7.91,4.932-.024,2.954,3.2,4.834,7.91,4.834,4.687,0,7.959-1.88,7.959-4.834C-2.905-17.187-6.177-19.092-10.864-19.116Zm0,2.2c3.125,0,5.151,1,5.151,2.734,0,1.685-2.026,2.686-5.151,2.686s-5.151-1-5.127-2.686C-16.016-15.918-13.989-16.919-10.864-16.919Zm31.714,8.5h-8.74v-1.636H18.6v-2.075H5.981V-13.7H17.9v-2H5.981v-1.514H18.433v-2.1H3.271v9.253H9.4v1.636H.684v2.148H20.85ZM10.767-5.054c-4.932,0-7.69,1.294-7.69,3.589,0,2.368,2.759,3.613,7.69,3.613,4.858,0,7.617-1.245,7.642-3.613C18.384-3.76,15.625-5.054,10.767-5.054Zm0,2.026c3.271,0,4.907.513,4.932,1.562C15.674-.391,14.038.122,10.767.122c-3.32,0-4.98-.513-4.98-1.587C5.786-2.515,7.446-3.027,10.767-3.027Z" transform="translate(899 4077)" fill="#fff"/>
    <path id="패스_55" data-name="패스 55" d="M-13.062-16.382v-2.344h-2.71v2.1A7.619,7.619,0,0,1-21.118-9.3l1.465,2.124a8.826,8.826,0,0,0,5.3-5.078A8.34,8.34,0,0,0-9.326-7.788l1.465-2.124C-11.255-10.986-13.062-13.6-13.062-16.382ZM-3.467-19.9h-2.71V-6.689h2.71V-12.28H-.391v-2.246H-3.467ZM-10.645-6.2c-4.614-.024-7.471,1.538-7.471,4.15,0,2.661,2.856,4.2,7.471,4.2,4.565,0,7.373-1.538,7.4-4.2C-3.272-4.663-6.079-6.226-10.645-6.2Zm0,2.124c3.027,0,4.712.732,4.712,2.026C-5.933-.684-7.617,0-10.645,0s-4.761-.684-4.761-2.051C-15.405-3.345-13.672-4.077-10.645-4.077ZM20.85-9.448H.732v2.173H9.424v2.124H3.1V1.9H18.408V-5.151h-6.3V-7.275h8.74Zm-1.855-9.79H2.539v2.173H5.566v3.784H2.661v2.2H18.872v-2.2H15.967v-3.784h3.027ZM5.786-3.052h9.985V-.293H5.786Zm2.49-10.229v-3.784h4.956v3.784Z" transform="translate(1117 3947)" fill="#fff"/>
    <path id="패스_56" data-name="패스 56" d="M-23.523-14.6v-3.516h-2.759V-14.6c-.024,4.126-2.026,8.374-5.615,10.059l1.709,2.2a11.247,11.247,0,0,0,5.3-6.86,10.538,10.538,0,0,0,5.2,6.445l1.636-2.173C-21.57-6.47-23.523-10.5-23.523-14.6Zm10.352-5.3h-2.686v7.129H-20.5v2.2h4.639V2.2h2.686Zm21.46,0H5.554V2.2H8.289ZM-6.189-18.091H-8.9V-3H1.843V-18.091H-.842v5.518H-6.189Zm0,12.866v-5.225H-.842v5.225ZM22.937-16.87v-1.636H20.056v1.636c-.024,3.394-3.345,6.812-7.91,7.642l1.2,2.271a11.792,11.792,0,0,0,8.179-5.981,11.546,11.546,0,0,0,8.154,5.981L30.9-9.228C26.282-10.034,22.937-13.452,22.937-16.87ZM31.7-2.881H11.536V-.635H31.7Z" transform="translate(1050 4077)" fill="#fff"/>
  </g>
</svg>
