<?xml version="1.0" encoding="UTF-8"?>
<svg id="_레이어_2" data-name="레이어_2" xmlns="http://www.w3.org/2000/svg" viewBox="0 0 297.91 131.04">
  <defs>
    <style>
      .cls-1 {
        fill: #fff;
      }
    </style>
  </defs>
  <g id="_레이어_1-2" data-name="레이어_1">
    <g>
      <g>
        <g>
          <path class="cls-1" d="M196.01,58.52h1l-1.32,5.27h-1c.68-2.74-1.03-4.56-3.86-4.56-4,0-8.07,3.92-9.36,9.04-1.24,4.98.32,8.71,4.53,8.71,2.77,0,5.65-1.03,8.21-4.74l.82.24c-2.44,4.12-5.8,6.01-9.8,6.01-5.12,0-8.74-3.83-7.15-10.22,1.59-6.36,7.45-10.1,12.57-10.1,2.44,0,4.09.62,5.03,1.59l.32-1.24Z"/>
          <path class="cls-1" d="M208.43,70.18c-.71,4.27-3.94,8.3-8.24,8.3-2.5,0-4.62-2.33-4.03-6.03.74-4.59,4.53-8.3,8.24-8.3,2.41,0,4.71,1.88,4.03,6.04ZM199.27,72.45c-.59,3.41.21,4.65,1.56,4.65,2.03,0,3.65-2.62,4.45-6.92.74-3.89-.18-5.03-1.3-5.03-2.06,0-3.97,3.12-4.71,7.3Z"/>
          <path class="cls-1" d="M217.94,78.16l2.15-8.63c.47-1.94.71-2.97-.29-2.97-2.41,0-5.45,7.8-6.62,10.66l-.15.65-2,.29h-1l2.62-10.54c.38-1.59-.47-1.59-2.03-1.59l.18-.71,4.53-.85h1.03l-1.3,5.21c-.15.68-.59,2.27-.71,2.8,3.12-7.62,6.06-8.3,7.21-8.3,1.91,0,2.44,1.41,2.03,3.09l-.59,2.3c-.15.65-.56,2.27-.71,2.91,3.09-7.62,6.06-8.3,7.21-8.3,1.88,0,2.44,1.41,2.03,3.09l-2.06,8.27c-.12.41.03.65.38.65.38,0,.97-.32,2.3-1.8l.77.47c-2.44,3.39-4,3.68-4.98,3.65-1.03-.03-2-.77-1.65-2.21.56-2.24,1.18-4.53,1.74-6.77.47-1.94.68-2.97-.32-2.97-2.38,0-5.45,7.8-6.59,10.66l-.15.65-2,.29h-1.03Z"/>
          <path class="cls-1" d="M235.93,85.46l-2.03.29h-1l4.5-18.13c.38-1.59-.44-1.59-2-1.59l.18-.71,4.5-.85h1.06l-.32,1.38c-.56,2.24-.71,2.62-1.21,4.42h.03c2.21-5.56,4.68-6.12,6.24-6.12,2.36.03,3.89,2.27,2.97,5.98-1.3,5.3-5.71,8.36-8.74,8.36-.5,0-1.53-.06-2.33-.62-.59,2.41-1.09,4.53-1.85,7.6ZM238.13,76.39c.27.71,1.15.97,1.62.97,2.03,0,4.44-2.41,5.8-6.57,1.12-3.36.59-5-.59-5.06-1.24-.06-3.44.74-6.65,9.98l-.18.68Z"/>
          <path class="cls-1" d="M261.6,75.51c-.09.26,0,.65.38.65s1-.32,2.36-1.8l.74.47c-2.35,3.27-3.86,3.65-4.86,3.65-.91,0-1.85-.47-1.85-1.56,0-.21.06-.53.21-1.09.38-1.41.56-2,.97-3.59h-.03c-2.15,5.56-3.97,6.24-5.71,6.24-1.97,0-3.71-1.77-3.71-4.5,0-4.27,4.15-9.83,8.92-9.83.76,0,2.65.12,3.33,1.68l1.27-1.38h1.09c-.47,1.03-1.09,2.97-1.44,4.45l-1.65,6.62ZM260.95,66.24c-.29-.71-1.09-1-1.62-1-3.59,0-6.3,6.15-6.3,9.36,0,1.53.65,2.3,1.53,2.3,1.35,0,3-.85,6.27-10.13l.12-.53Z"/>
          <path class="cls-1" d="M273.25,64.47l-.88,3.56c-.23.97-.88,3.47-1.12,4.45h.03c3.18-7.65,6.27-8.33,7.39-8.33,1.91,0,2.47,1.41,2.06,3.09l-2.06,8.27c-.12.41.03.65.38.65.38,0,1-.32,2.33-1.8l.77.47c-2.47,3.39-3.97,3.68-4.98,3.65-1.03-.03-2-.77-1.65-2.21l1.71-6.77c.47-1.91.71-2.94-.26-2.94-2.38,0-5.68,7.68-6.89,10.66l-.15.65-2,.29h-1l2.62-10.54c.38-1.59-.44-1.59-2-1.59l.18-.71,4.5-.85h1.03Z"/>
          <path class="cls-1" d="M280.76,85.02l-.21-.26,1.85-2.38h.15c.12.94.56,1.32,1.21,1.32,1.12,0,1.97-.91,4.53-4.95-.65-7.01-.91-11.07-1.15-11.66-.35-1.15-1.21-.77-2.44-.06l-.09-.8c.18-.15,3.24-2.03,4.36-2.12,1.68-.12,1.59,5.95,1.74,11.57.47-.68.91-1.35,1.29-1.94,3.03-4.65,2.97-7.45,2.33-8.57.56-1.18,2.3-1.24,3-.77,1.53,1-.12,3.97-3.21,8.42l-3.74,5.33c-3.24,4.71-4.86,7.62-7.74,7.62-.85,0-1.53-.35-1.88-.77Z"/>
        </g>
        <g>
          <path class="cls-1" d="M127.04,57.55l-.09,1.3c-.57,0-1.02.1-1.35.31s-.57.52-.72.93c-.15.41-.24.93-.28,1.56l-.44,9.24c-.1,1.84-.36,3.34-.78,4.47-.42,1.14-1.03,1.97-1.81,2.49-.78.52-1.78.78-2.97.78-.57,0-1.11-.09-1.62-.26-.51-.18-.93-.45-1.25-.81-.32-.36-.48-.82-.46-1.37.02-.47.16-.89.43-1.25.27-.36.65-.55,1.16-.57.57-.04.98.11,1.22.44.24.33.37.69.37,1.06,0,.12-.01.25-.04.4-.03.15-.07.28-.13.4.08.18.22.3.41.37.2.07.36.1.5.1.26,0,.51-.07.77-.22.25-.15.48-.46.68-.93.2-.47.31-1.19.35-2.15l.59-11.72c.04-.55.08-1.08.12-1.6.04-.52.07-1.01.09-1.46-.28,0-.58.01-.91.03s-.66.03-.99.04c-.32,0-.61.02-.87.04l.06-1.62h7.98Z"/>
          <path class="cls-1" d="M133.26,78.48c-.8,0-1.45-.18-1.93-.54-.48-.36-.83-.85-1.06-1.47-.23-.62-.34-1.3-.34-2.05,0-.98.07-1.99.22-3.02.15-1.03.29-2.01.44-2.93.15-.92.22-1.69.22-2.3,0-.35-.04-.64-.13-.85-.09-.22-.27-.32-.55-.32s-.58.2-.91.6c-.33.4-.65,1.09-.94,2.08l-1.06-.26c.06-.37.19-.8.38-1.28.2-.48.46-.95.78-1.41.32-.46.72-.84,1.18-1.15.46-.3,1.01-.46,1.63-.46.88,0,1.52.26,1.91.78.39.52.59,1.26.59,2.22,0,.57-.04,1.25-.13,2.03-.09.78-.19,1.59-.31,2.43-.12.83-.22,1.64-.31,2.41-.09.78-.13,1.45-.13,2.02,0,.24.03.49.09.75s.18.48.35.65c.18.17.42.25.74.25.49,0,.97-.24,1.44-.72.47-.48.92-1.13,1.34-1.96.42-.82.81-1.74,1.15-2.74.34-1,.61-2.03.81-3.08.2-1.05.29-2.05.29-2.99,0-.27,0-.57-.01-.88,0-.31-.03-.6-.07-.85h2.91c.04.24.06.42.06.54v.43c0,.37-.02.81-.06,1.31-.04.5-.1,1.11-.18,1.84-.08.73-.19,1.61-.32,2.65-.12.94-.21,1.71-.28,2.3-.07.59-.13,1.06-.18,1.43-.05.36-.08.66-.09.88,0,.23-.01.44-.01.63,0,.33.05.6.15.81s.27.31.5.31c.29,0,.62-.2.97-.59.35-.39.67-1.08.94-2.06l1.09.26c-.08.37-.21.8-.38,1.28-.18.48-.42.95-.74,1.41s-.7.84-1.15,1.15c-.45.3-.98.46-1.59.46-.75,0-1.32-.23-1.74-.68-.41-.45-.62-1.11-.62-1.97,0-.51.05-1.03.13-1.57.09-.54.18-1.1.28-1.69h-.06c-.61,1.57-1.2,2.79-1.78,3.65s-1.16,1.46-1.74,1.78c-.58.32-1.18.49-1.81.49Z"/>
          <path class="cls-1" d="M150.3,78.48c-.82,0-1.61-.13-2.37-.38-.76-.26-1.36-.63-1.83-1.12-.46-.49-.69-1.07-.69-1.74,0-.49.14-.89.43-1.19.28-.3.63-.46,1.04-.46s.77.14,1.03.43c.25.28.38.62.38,1.02,0,.14-.02.28-.06.43-.04.15-.1.3-.18.46.14.35.43.64.88.85.45.22.9.32,1.35.32,1,0,1.73-.23,2.19-.68.46-.45.69-1.05.69-1.8,0-.47-.17-.89-.52-1.27-.34-.37-.78-.73-1.31-1.06-.53-.33-1.08-.67-1.65-1-.69-.41-1.31-.81-1.85-1.21-.55-.39-.98-.82-1.3-1.3-.31-.47-.47-1.01-.47-1.62,0-.71.22-1.37.65-1.99.43-.62,1.05-1.12,1.84-1.5.8-.38,1.72-.57,2.78-.57.77,0,1.49.12,2.18.37.69.25,1.26.59,1.71,1.03.45.44.68.98.68,1.6,0,.45-.14.82-.41,1.12-.28.29-.62.44-1.03.44s-.75-.14-1-.43c-.26-.28-.38-.6-.38-.96,0-.16.02-.31.06-.46s.1-.3.18-.46c-.12-.29-.36-.53-.72-.71-.36-.18-.81-.26-1.34-.26-.39,0-.78.08-1.15.25-.37.17-.69.4-.94.71-.26.3-.38.67-.38,1.1,0,.33.1.64.29.93.2.28.48.56.85.82s.83.57,1.38.93c.69.39,1.39.81,2.12,1.27.73.45,1.33.97,1.82,1.56.49.59.74,1.3.74,2.12s-.25,1.6-.74,2.27c-.49.67-1.16,1.19-2.02,1.56s-1.84.56-2.96.56Z"/>
          <path class="cls-1" d="M164.14,59.2l-.56,4.24h4.36l-.12,1.41-4.36.06c-.08.79-.17,1.6-.28,2.46-.11.85-.2,1.7-.28,2.53-.08.83-.14,1.62-.19,2.36-.05.74-.07,1.38-.07,1.93,0,.33.02.69.07,1.06.05.37.17.68.37.93.2.25.51.37.94.37.18,0,.41-.04.71-.12.29-.08.62-.26.97-.54.35-.28.71-.73,1.06-1.34l1,.65c-.61,1.1-1.29,1.92-2.05,2.47-.76.55-1.63.82-2.64.82-.86,0-1.53-.18-2-.54-.47-.36-.81-.84-1-1.44-.2-.6-.29-1.24-.27-1.93,0-.71.03-1.57.09-2.59.06-1.02.15-2.13.27-3.34.12-1.21.24-2.44.38-3.69l-2.53.03.15-1.53c1.37,0,2.39-.37,3.06-1.1.67-.74,1.17-1.78,1.5-3.14h1.41Z"/>
        </g>
      </g>
      <g>
        <path class="cls-1" d="M103.63,0l-2.62,8.05c-3.53,0-6.51.64-8.91,1.92-2.41,1.28-4.4,3.2-5.97,5.76-1.58,2.56-2.99,5.8-4.24,9.7l-17.53,57.47c-3.56,11.47-7.57,20.74-12.01,27.82-4.44,7.08-9.52,12.23-15.23,15.47-5.71,3.23-12.29,4.85-19.73,4.85-3.54,0-6.76-.55-9.65-1.64-2.89-1.1-5.05-2.77-6.48-5.03-1.43-2.26-1.64-5.09-.65-8.51.88-2.93,2.43-5.52,4.66-7.78,2.23-2.26,4.94-3.44,8.15-3.57,3.6-.24,5.9.67,6.89,2.75.99,2.08,1.19,4.27.6,6.59-.19.73-.49,1.55-.91,2.47-.42.92-.91,1.74-1.46,2.47.2,1.1.86,1.86,1.97,2.29,1.11.43,2.09.64,2.95.64,1.59,0,3.29-.46,5.11-1.37,1.82-.92,3.72-2.84,5.7-5.76,1.97-2.93,3.85-7.38,5.64-13.36L62.29,28.37c1.12-3.42,2.22-6.74,3.3-9.97,1.08-3.23,2.04-6.25,2.88-9.06-1.71,0-3.62.06-5.72.18-2.11.12-4.18.21-6.21.27-2.02.06-3.85.16-5.47.27l2.96-10.06h49.6Z"/>
        <path class="cls-1" d="M90.12,25.28h4.64v24.45h-4.64c0-12.7-10.11-21.17-23.23-21.17-18.58,0-32.92,18.17-32.92,41.94s11.61,40.43,31.15,40.43c12.84,0,25-4.78,32.51-21.99l4.1,1.09c-6.55,19.12-19.94,27.87-38.52,27.87-23.77,0-44.94-17.76-44.94-47.4s22.81-46.86,46.58-46.86c11.34,0,19.67,2.87,25.27,7.38v-5.74Z"/>
      </g>
    </g>
  </g>
</svg>