<svg id="그룹_29" data-name="그룹 29" xmlns="http://www.w3.org/2000/svg" xmlns:xlink="http://www.w3.org/1999/xlink" width="134" height="139.587" viewBox="0 0 134 139.587">
  <defs>
    <clipPath id="clip-path">
      <rect id="사각형_39" data-name="사각형 39" width="134" height="139.587" fill="#fff"/>
    </clipPath>
  </defs>
  <g id="그룹_28" data-name="그룹 28" clip-path="url(#clip-path)">
    <path id="패스_36" data-name="패스 36" d="M.019,76.211c0-3.1-.051-6.2.012-9.3a11.622,11.622,0,0,1,7.18-10.939A1.72,1.72,0,0,0,8.4,54.381c2.51-24.128,14.8-41.346,37.344-50.257C74.39-7.2,105.976,5.538,119.6,33.151a56.964,56.964,0,0,1,5.659,21.03,1.69,1.69,0,0,0,1.226,1.677c4.771,2.1,7.38,5.778,7.457,11.021.092,6.248.056,12.5.012,18.747a11.966,11.966,0,1,1-23.932.022c-.044-6.2-.029-12.406-.005-18.609a11.84,11.84,0,0,1,8.894-11.667c.632-.18,1.146-.251,1.038-1.224-2.1-18.927-11.238-33.371-28.024-42.382a53.168,53.168,0,0,0-76.9,34.4,67.371,67.371,0,0,0-1.309,7.792c-.094.761.05,1.093.894,1.311,5.932,1.533,9.343,5.985,9.361,12.135q.025,8.888,0,17.775a11.852,11.852,0,0,1-8.065,11.735c-.584.227-.947.41-.828,1.147,1.006,6.281,2.787,12.267,6.677,17.433,4.615,6.129,10.969,9.318,18.347,10.757a60.638,60.638,0,0,0,12.439.856c.977-.012,1.3-.328,1.56-1.244a10.809,10.809,0,0,1,21.219,3.326,10.9,10.9,0,0,1-8.287,10.1A10.613,10.613,0,0,1,54.983,133.8a2.216,2.216,0,0,0-2.545-1.383c-7.8.322-15.442-.493-22.65-3.741-9.4-4.234-15.027-11.7-18.062-21.332a48.159,48.159,0,0,1-1.941-8.93A1.357,1.357,0,0,0,8.663,97.1,11.842,11.842,0,0,1,.021,85.238c-.009-3.009,0-6.018,0-9.026m18.644.161c0-3.1.019-6.2,0-9.3a6.662,6.662,0,1,0-13.321,0q-.032,9.158,0,18.316a6.665,6.665,0,1,0,13.323,0c.019-3.006,0-6.013,0-9.02m109.993-.14V67.213c0-.046,0-.093,0-.139a6.664,6.664,0,1,0-13.326,0q-.032,9.158,0,18.316a6.665,6.665,0,1,0,13.323,0c.019-3.052,0-6.106,0-9.158M64.5,134.271a5.512,5.512,0,1,0-5.52-5.468,5.582,5.582,0,0,0,5.52,5.468" transform="translate(0 0)" fill="#fff"/>
    <path id="패스_37" data-name="패스 37" d="M152.789,155.878c4.766,0,9.532-.017,14.3,0,11.18.045,19.337,8.193,19.334,19.4,0,5.735.327,11.483-.172,17.2a18.723,18.723,0,0,1-18.327,16.792c-6.986.078-13.974.029-20.96.007a4.116,4.116,0,0,0-2.219.6c-4.092,2.434-8.213,4.819-12.3,7.255-1.145.683-2.256,1.1-3.482.263-1.3-.882-1.251-2.154-.988-3.484.385-1.949.727-3.908,1.173-5.843.158-.685-.049-.964-.6-1.3-6.421-3.925-9.568-9.672-9.53-17.193.025-4.858-.009-9.717.007-14.575a18.8,18.8,0,0,1,18.92-19.112c4.95-.057,9.9-.01,14.853-.011m-18.533,54c2.906-1.706,5.637-3.253,8.3-4.9a6.8,6.8,0,0,1,3.8-1.017c6.9.046,13.794.034,20.69.018,8.1-.019,13.957-5.776,14.041-13.852q.078-7.567,0-15.136c-.093-8.053-5.884-13.768-13.923-13.782q-14.3-.026-28.606,0c-8.46.013-14.207,5.758-14.227,14.2-.011,4.675.013,9.35-.006,14.025-.027,6.464,2.845,11.035,8.8,13.632a2.607,2.607,0,0,1,1.765,3.2c-.168,1.13-.394,2.252-.636,3.612" transform="translate(-85.905 -112.507)" fill="#fff"/>
    <path id="패스_38" data-name="패스 38" d="M178.838,249.141a3.315,3.315,0,0,1-3.344,3.329,3.4,3.4,0,0,1-3.3-3.407,3.329,3.329,0,0,1,3.315-3.23,3.244,3.244,0,0,1,3.334,3.309" transform="translate(-124.293 -177.452)" fill="#fff"/>
    <path id="패스_39" data-name="패스 39" d="M227.757,249.1a3.252,3.252,0,0,1,3.376-3.271,3.329,3.329,0,0,1,3.279,3.268,3.4,3.4,0,0,1-3.344,3.371,3.323,3.323,0,0,1-3.311-3.368" transform="translate(-164.405 -177.451)" fill="#fff"/>
    <path id="패스_40" data-name="패스 40" d="M289.677,249.1a3.318,3.318,0,0,1-3.305,3.37,3.4,3.4,0,0,1-3.346-3.37,3.332,3.332,0,0,1,3.277-3.269,3.245,3.245,0,0,1,3.374,3.269" transform="translate(-204.3 -177.453)" fill="#fff"/>
  </g>
</svg>
