<svg xmlns="http://www.w3.org/2000/svg" xmlns:xlink="http://www.w3.org/1999/xlink" width="392" height="269" viewBox="0 0 392 269">
  <defs>
    <clipPath id="clip-path">
      <rect id="사각형_5" data-name="사각형 5" width="215.739" height="94.894" fill="#00205e"/>
    </clipPath>
  </defs>
  <g id="media-blank" transform="translate(-350 -2381)">
    <rect id="사각형_101" data-name="사각형 101" width="392" height="269" transform="translate(350 2381)" fill="#00205e" opacity="0.1"/>
    <g id="그룹_1" data-name="그룹 1" transform="translate(768 2470)">
      <g id="그룹_1-2" data-name="그룹 1" transform="translate(-330 -2)" clip-path="url(#clip-path)">
        <path id="패스_1" data-name="패스 1" d="M190.958,58.424h.725l-.959,3.816H190c.491-1.983-.746-3.3-2.792-3.3-2.9,0-5.841,2.835-6.78,6.544-.9,3.6.235,6.31,3.283,6.31,2,0,4.093-.746,5.948-3.432l.6.17c-1.77,2.984-4.2,4.349-7.1,4.349-3.709,0-6.331-2.771-5.18-7.4a9.7,9.7,0,0,1,9.1-7.313,4.952,4.952,0,0,1,3.646,1.151Z" transform="translate(-49.015 -16.045)" fill="#00205e"/>
        <path id="패스_2" data-name="패스 2" d="M205.017,68.515c-.511,3.091-2.856,6.012-5.969,6.012-1.812,0-3.348-1.684-2.921-4.37.533-3.326,3.283-6.012,5.969-6.012,1.748,0,3.412,1.364,2.921,4.37m-6.63,1.642c-.427,2.473.149,3.369,1.13,3.369,1.471,0,2.644-1.9,3.22-5.011.532-2.814-.129-3.645-.939-3.645-1.492,0-2.879,2.26-3.411,5.287" transform="translate(-54.078 -17.693)" fill="#00205e"/>
        <path id="패스_3" data-name="패스 3" d="M215.755,74.3l1.557-6.247c.34-1.407.511-2.153-.214-2.153-1.748,0-3.945,5.649-4.8,7.717l-.106.469-1.451.213h-.724l1.9-7.632c.277-1.151-.341-1.151-1.471-1.151l.128-.511,3.283-.618h.747l-.939,3.773c-.106.491-.426,1.642-.512,2.025,2.26-5.521,4.392-6.011,5.223-6.011,1.386,0,1.77,1.023,1.471,2.238l-.426,1.663c-.107.469-.4,1.642-.512,2.11,2.238-5.521,4.391-6.011,5.223-6.011,1.364,0,1.769,1.023,1.471,2.238l-1.492,5.99c-.086.3.021.469.277.469.277,0,.7-.235,1.663-1.3l.555.341c-1.77,2.451-2.9,2.665-3.6,2.644a1.2,1.2,0,0,1-1.193-1.6c.4-1.62.852-3.283,1.258-4.9.34-1.407.49-2.153-.235-2.153-1.727,0-3.945,5.649-4.775,7.717l-.107.469-1.45.213Z" transform="translate(-57.93 -17.701)" fill="#00205e"/>
        <path id="패스_4" data-name="패스 4" d="M235.089,79.579l-1.471.214h-.726l3.262-13.133c.277-1.151-.32-1.151-1.45-1.151l.128-.511,3.262-.618h.767l-.235,1c-.4,1.62-.511,1.9-.873,3.2h.021c1.6-4.029,3.39-4.435,4.52-4.435,1.705.022,2.814,1.642,2.153,4.328-.938,3.837-4.136,6.054-6.331,6.054a3.022,3.022,0,0,1-1.684-.448c-.427,1.748-.789,3.283-1.343,5.5m1.6-6.566a1.3,1.3,0,0,0,1.173.7c1.471,0,3.219-1.749,4.2-4.754.81-2.431.427-3.624-.427-3.667-.9-.043-2.494.533-4.818,7.227Z" transform="translate(-64.239 -17.693)" fill="#00205e"/>
        <path id="패스_5" data-name="패스 5" d="M258.42,72.374c-.064.191,0,.469.277.469s.725-.235,1.705-1.3l.533.341c-1.7,2.367-2.793,2.644-3.517,2.644a1.191,1.191,0,0,1-1.343-1.13,3.53,3.53,0,0,1,.149-.789c.277-1.023.406-1.449.7-2.6h-.022c-1.556,4.029-2.878,4.52-4.136,4.52-1.429,0-2.686-1.28-2.686-3.262,0-3.091,3.006-7.12,6.46-7.12a2.5,2.5,0,0,1,2.409,1.215l.916-1h.789a21.185,21.185,0,0,0-1.045,3.22Zm-.469-6.716a1.3,1.3,0,0,0-1.173-.725c-2.6,0-4.562,4.456-4.562,6.78,0,1.108.469,1.663,1.108,1.663.981,0,2.175-.618,4.541-7.334Z" transform="translate(-68.981 -17.693)" fill="#00205e"/>
        <path id="패스_6" data-name="패스 6" d="M271.507,64.38l-.639,2.579c-.17.7-.64,2.516-.81,3.219h.022c2.3-5.543,4.541-6.033,5.35-6.033,1.386,0,1.792,1.023,1.493,2.238l-1.493,5.991c-.085.3.022.469.277.469.277,0,.725-.235,1.684-1.3l.555.342c-1.791,2.451-2.879,2.665-3.6,2.643a1.2,1.2,0,0,1-1.193-1.6l1.236-4.9c.341-1.386.512-2.132-.192-2.132-1.726,0-4.114,5.564-4.989,7.717l-.106.469-1.449.213h-.726l1.9-7.632c.277-1.151-.319-1.151-1.449-1.151L267.5,65l3.262-.618Z" transform="translate(-73.626 -17.693)" fill="#00205e"/>
        <path id="패스_7" data-name="패스 7" d="M280.7,79.251l-.15-.192,1.343-1.726H282c.086.682.406.96.874.96.81,0,1.429-.661,3.283-3.582-.469-5.074-.66-8.015-.831-8.442-.256-.831-.874-.555-1.769-.043l-.065-.576a12.087,12.087,0,0,1,3.155-1.535c1.216-.085,1.151,4.307,1.258,8.379.341-.49.661-.981.938-1.407,2.2-3.368,2.154-5.394,1.684-6.2a1.637,1.637,0,0,1,2.175-.554c1.109.725-.085,2.878-2.324,6.1l-2.708,3.859c-2.345,3.411-3.517,5.521-5.607,5.521a1.807,1.807,0,0,1-1.364-.554" transform="translate(-77.385 -17.684)" fill="#00205e"/>
        <path id="패스_8" data-name="패스 8" d="M123.8,57.551l-.064.939a1.853,1.853,0,0,0-.981.223,1.26,1.26,0,0,0-.523.672,4.185,4.185,0,0,0-.2,1.13l-.32,6.694a11.264,11.264,0,0,1-.565,3.24,3.548,3.548,0,0,1-1.311,1.8,3.819,3.819,0,0,1-2.153.565,3.551,3.551,0,0,1-1.172-.192,2.107,2.107,0,0,1-.906-.587,1.356,1.356,0,0,1-.331-.991,1.627,1.627,0,0,1,.309-.907,1.032,1.032,0,0,1,.843-.416.94.94,0,0,1,.884.32,1.276,1.276,0,0,1,.266.768,1.5,1.5,0,0,1-.032.288,1.153,1.153,0,0,1-.1.288.483.483,0,0,0,.3.267,1.125,1.125,0,0,0,.362.075,1.1,1.1,0,0,0,.555-.16,1.337,1.337,0,0,0,.49-.671,4.778,4.778,0,0,0,.256-1.556l.427-8.485q.042-.6.085-1.162t.064-1.056c-.2,0-.419.007-.661.022s-.479.025-.714.032-.445.018-.629.032l.043-1.172Z" transform="translate(-31.794 -15.874)" fill="#00205e"/>
        <path id="패스_9" data-name="패스 9" d="M131.591,74.243a2.1,2.1,0,0,1-2.164-1.46,4.289,4.289,0,0,1-.245-1.482,15.451,15.451,0,0,1,.159-2.185Q129.5,68,129.661,67a10.863,10.863,0,0,0,.161-1.663,1.667,1.667,0,0,0-.1-.618.384.384,0,0,0-.4-.235.968.968,0,0,0-.661.437,4.485,4.485,0,0,0-.682,1.5l-.767-.192a4.255,4.255,0,0,1,.277-.927,5.18,5.18,0,0,1,.565-1.023,3.167,3.167,0,0,1,.852-.832,2.1,2.1,0,0,1,1.184-.33,1.625,1.625,0,0,1,1.385.565,2.634,2.634,0,0,1,.427,1.61,13.458,13.458,0,0,1-.1,1.471q-.1.853-.225,1.759t-.224,1.748a13.036,13.036,0,0,0-.1,1.461,2.548,2.548,0,0,0,.064.543.9.9,0,0,0,.256.469.744.744,0,0,0,.533.181,1.48,1.48,0,0,0,1.045-.522,5.8,5.8,0,0,0,.97-1.418A15.063,15.063,0,0,0,134.97,69a15.885,15.885,0,0,0,.587-2.228,11.806,11.806,0,0,0,.213-2.164q0-.3-.011-.639a5.224,5.224,0,0,0-.053-.618h2.11a2.613,2.613,0,0,1,.043.395v.308c0,.271-.014.587-.043.949s-.071.807-.127,1.332-.135,1.166-.235,1.919q-.128,1.023-.2,1.663t-.128,1.034c-.035.263-.056.477-.064.639s-.011.316-.011.458a1.375,1.375,0,0,0,.106.587.372.372,0,0,0,.363.224,1.032,1.032,0,0,0,.7-.427,3.851,3.851,0,0,0,.682-1.493l.789.192a6.923,6.923,0,0,1-.277.928,4.7,4.7,0,0,1-.533,1.023,3.078,3.078,0,0,1-.831.831,2.012,2.012,0,0,1-1.151.33,1.617,1.617,0,0,1-1.257-.49,2.045,2.045,0,0,1-.448-1.428,7.081,7.081,0,0,1,.1-1.141q.1-.587.2-1.226h-.043a13.868,13.868,0,0,1-1.29,2.644,3.964,3.964,0,0,1-1.257,1.289,2.652,2.652,0,0,1-1.311.352" transform="translate(-35.092 -17.409)" fill="#00205e"/>
        <path id="패스_10" data-name="패스 10" d="M148.952,74.243a5.347,5.347,0,0,1-1.716-.277,3.162,3.162,0,0,1-1.322-.81,1.775,1.775,0,0,1-.5-1.258,1.21,1.21,0,0,1,.309-.863,1,1,0,0,1,.757-.331.956.956,0,0,1,.747.309,1.069,1.069,0,0,1,.277.736,1.211,1.211,0,0,1-.042.309,1.824,1.824,0,0,1-.129.33,1.185,1.185,0,0,0,.64.618,2.254,2.254,0,0,0,.981.235,2.207,2.207,0,0,0,1.589-.49,1.741,1.741,0,0,0,.5-1.3,1.319,1.319,0,0,0-.373-.917,4.68,4.68,0,0,0-.949-.768q-.576-.363-1.194-.725-.746-.448-1.343-.874a3.662,3.662,0,0,1-.939-.938,2.064,2.064,0,0,1-.341-1.172,2.473,2.473,0,0,1,.469-1.44,3.369,3.369,0,0,1,1.332-1.087,4.6,4.6,0,0,1,2.015-.416,4.66,4.66,0,0,1,1.577.266,3.356,3.356,0,0,1,1.236.746,1.566,1.566,0,0,1,.491,1.162,1.143,1.143,0,0,1-.3.81.98.98,0,0,1-.747.319.924.924,0,0,1-.724-.309,1.008,1.008,0,0,1-.277-.692,1.292,1.292,0,0,1,.042-.331,1.765,1.765,0,0,1,.128-.33,1,1,0,0,0-.522-.512,2.213,2.213,0,0,0-.97-.192,2.01,2.01,0,0,0-.831.182,1.873,1.873,0,0,0-.682.511,1.2,1.2,0,0,0-.277.8,1.162,1.162,0,0,0,.213.672,2.491,2.491,0,0,0,.618.6q.406.288,1,.671.746.427,1.535.917a5.448,5.448,0,0,1,1.322,1.13,2.322,2.322,0,0,1,.533,1.535,2.7,2.7,0,0,1-.533,1.641,3.506,3.506,0,0,1-1.461,1.13,5.309,5.309,0,0,1-2.142.4" transform="translate(-40.109 -17.409)" fill="#00205e"/>
        <path id="패스_11" data-name="패스 11" d="M162.447,59.2l-.4,3.069H165.2l-.085,1.024-3.155.042q-.086.854-.2,1.78t-.2,1.834q-.086.906-.139,1.705t-.053,1.4a5.875,5.875,0,0,0,.053.767,1.33,1.33,0,0,0,.267.673.82.82,0,0,0,.681.266,2.112,2.112,0,0,0,.512-.085,2.01,2.01,0,0,0,.7-.395,3.508,3.508,0,0,0,.767-.97l.725.469a5.392,5.392,0,0,1-1.481,1.791,3.163,3.163,0,0,1-1.908.6,2.335,2.335,0,0,1-1.45-.393,2.116,2.116,0,0,1-.725-1.046,4.051,4.051,0,0,1-.192-1.4q0-.767.064-1.876t.192-2.419q.128-1.311.277-2.677l-1.834.022.107-1.109a2.847,2.847,0,0,0,2.217-.8,5.183,5.183,0,0,0,1.087-2.27Z" transform="translate(-43.585 -16.329)" fill="#00205e"/>
        <path id="패스_12" data-name="패스 12" d="M75.045,0l-1.9,5.832A13.566,13.566,0,0,0,66.7,7.222,11.312,11.312,0,0,0,62.372,11.4,32.3,32.3,0,0,0,59.3,18.422L46.612,60.037q-3.868,12.459-8.7,20.147t-11.03,11.2A28.532,28.532,0,0,1,12.6,94.894,19.55,19.55,0,0,1,5.611,93.7,9.212,9.212,0,0,1,.916,90.058C-.123,88.424-.274,86.37.446,83.893a13.38,13.38,0,0,1,3.373-5.633,8.466,8.466,0,0,1,5.9-2.585q3.906-.262,4.989,1.99a6.805,6.805,0,0,1,.431,4.771,10.962,10.962,0,0,1-.66,1.789,9.459,9.459,0,0,1-1.057,1.791,2.1,2.1,0,0,0,1.426,1.655,6.065,6.065,0,0,0,2.136.464,8.287,8.287,0,0,0,3.7-1,12.072,12.072,0,0,0,4.125-4.173,37.086,37.086,0,0,0,4.082-9.677L45.11,20.542q1.22-3.711,2.389-7.223t2.086-6.562c-1.238,0-2.621.047-4.142.133s-3.025.155-4.5.2-2.788.114-3.96.2L39.129,0Z" transform="translate(0)" fill="#00205e"/>
        <path id="패스_13" data-name="패스 13" d="M70.3,24.826h3.359V42.532H70.3c0-9.2-7.322-15.333-16.819-15.333-13.456,0-23.842,13.158-23.842,30.371,0,16.718,8.409,29.282,22.556,29.282,9.3,0,18.1-3.461,23.542-15.925l2.968.79C73.962,85.566,64.266,91.9,50.811,91.9,33.6,91.9,18.265,79.037,18.265,57.57,18.265,36.2,34.785,23.637,52,23.637c8.211,0,14.243,2.078,18.3,5.343Z" transform="translate(-5.038 -6.52)" fill="#00205e"/>
      </g>
    </g>
  </g>
</svg>
