<svg xmlns="http://www.w3.org/2000/svg" width="463" height="311" viewBox="0 0 463 311">
  <g id="mission-3" transform="translate(-742 -3845)">
    <g id="그룹_80" data-name="그룹 80" transform="translate(-201 557.799)">
      <g id="그룹_79" data-name="그룹 79" transform="translate(1013.785 3414.179)">
        <path id="타원_29" data-name="타원 29" d="M91.5,2A89.688,89.688,0,0,0,73.463,3.828a88.736,88.736,0,0,0-32,13.538A89.986,89.986,0,0,0,3.819,73.858a91.395,91.395,0,0,0,0,36.285A89.943,89.943,0,0,0,56.667,174.93a88.671,88.671,0,0,0,16.8,5.242,89.9,89.9,0,0,0,36.075,0,88.736,88.736,0,0,0,32-13.538,89.986,89.986,0,0,0,37.646-56.491,91.395,91.395,0,0,0,0-36.285A89.943,89.943,0,0,0,126.333,9.07a88.671,88.671,0,0,0-16.8-5.242A89.688,89.688,0,0,0,91.5,2m0-2C142.034,0,183,41.19,183,92s-40.966,92-91.5,92S0,142.81,0,92,40.966,0,91.5,0Z" transform="translate(0.215 0.022)" fill="#fff"/>
        <path id="타원_30" data-name="타원 30" d="M91.5,2A89.688,89.688,0,0,0,73.463,3.828a88.736,88.736,0,0,0-32,13.538A89.986,89.986,0,0,0,3.819,73.858a91.395,91.395,0,0,0,0,36.285A89.943,89.943,0,0,0,56.667,174.93a88.671,88.671,0,0,0,16.8,5.242,89.9,89.9,0,0,0,36.075,0,88.736,88.736,0,0,0,32-13.538,89.986,89.986,0,0,0,37.646-56.491,91.395,91.395,0,0,0,0-36.285A89.943,89.943,0,0,0,126.333,9.07a88.671,88.671,0,0,0-16.8-5.242A89.688,89.688,0,0,0,91.5,2m0-2C142.034,0,183,41.19,183,92s-40.966,92-91.5,92S0,142.81,0,92,40.966,0,91.5,0Z" transform="translate(140.215 0.022)" fill="#fff"/>
      </g>
      <path id="타원_31" data-name="타원 31" d="M92,2A90.191,90.191,0,0,0,73.862,3.838,89.233,89.233,0,0,0,41.686,17.452a90.485,90.485,0,0,0-37.857,56.8,91.9,91.9,0,0,0,0,36.486A90.444,90.444,0,0,0,56.972,175.89a89.169,89.169,0,0,0,16.89,5.271,90.4,90.4,0,0,0,36.276,0,89.233,89.233,0,0,0,32.176-13.614,90.485,90.485,0,0,0,37.857-56.8,91.9,91.9,0,0,0,0-36.486A90.444,90.444,0,0,0,127.028,9.11a89.169,89.169,0,0,0-16.89-5.271A90.191,90.191,0,0,0,92,2m0-2c50.81,0,92,41.414,92,92.5S142.81,185,92,185,0,143.586,0,92.5,41.19,0,92,0Z" transform="translate(1083 3287.201)" fill="#fff"/>
      <path id="타원_32" data-name="타원 32" d="M92,2A91.164,91.164,0,0,0,73.858,3.819,89.943,89.943,0,0,0,9.07,56.667a88.671,88.671,0,0,0-5.242,16.8,89.9,89.9,0,0,0,0,36.075,88.736,88.736,0,0,0,13.538,32,89.986,89.986,0,0,0,56.491,37.646,91.395,91.395,0,0,0,36.285,0,89.943,89.943,0,0,0,64.787-52.848,88.671,88.671,0,0,0,5.242-16.8,89.9,89.9,0,0,0,0-36.075,88.736,88.736,0,0,0-13.538-32A89.986,89.986,0,0,0,110.142,3.819,91.164,91.164,0,0,0,92,2m0-2c50.81,0,92,40.966,92,91.5S142.81,183,92,183,0,142.034,0,91.5,41.19,0,92,0Z" transform="translate(1222 3287.201)" fill="#fff"/>
      <path id="타원_33" data-name="타원 33" d="M92,2A91.164,91.164,0,0,0,73.858,3.819,89.943,89.943,0,0,0,9.07,56.667a88.671,88.671,0,0,0-5.242,16.8,89.9,89.9,0,0,0,0,36.075,88.736,88.736,0,0,0,13.538,32,89.986,89.986,0,0,0,56.491,37.646,91.395,91.395,0,0,0,36.285,0,89.943,89.943,0,0,0,64.787-52.848,88.671,88.671,0,0,0,5.242-16.8,89.9,89.9,0,0,0,0-36.075,88.736,88.736,0,0,0-13.538-32A89.986,89.986,0,0,0,110.142,3.819,91.164,91.164,0,0,0,92,2m0-2c50.81,0,92,40.966,92,91.5S142.81,183,92,183,0,142.034,0,91.5,41.19,0,92,0Z" transform="translate(943 3287.201)" fill="#fff"/>
    </g>
    <text id="R_D" data-name="R&amp;D" transform="translate(832 3947)" fill="#fff" font-size="27" font-family="Pretendard-Bold, Pretendard" font-weight="700"><tspan x="-26.75" y="0">R&amp;D</tspan></text>
    <text id="생산" transform="translate(974 3947)" fill="#fff" font-size="27" font-family="Pretendard-Bold, Pretendard" font-weight="700"><tspan x="-23.335" y="0">생산</tspan></text>
    <text id="유통" transform="translate(899 4077)" fill="#fff" font-size="27" font-family="Pretendard-Bold, Pretendard" font-weight="700"><tspan x="-23.335" y="0">유통</tspan></text>
    <text id="상품" transform="translate(1117 3947)" fill="#fff" font-size="27" font-family="Pretendard-Bold, Pretendard" font-weight="700"><tspan x="-23.335" y="0">상품</tspan></text>
    <text id="서비스" transform="translate(1050 4077)" fill="#fff" font-size="27" font-family="Pretendard-Bold, Pretendard" font-weight="700"><tspan x="-35.002" y="0">서비스</tspan></text>
  </g>
</svg>
