<svg xmlns="http://www.w3.org/2000/svg" width="473" height="255" viewBox="0 0 473 255">
  <g id="mission-1" transform="translate(-800 -1867.984)">
    <text id="합리적_가격_제안" data-name="합리적 
가격 제안" transform="translate(927 1986.984)" fill="#fff" font-size="30" font-family="Pretendard-Bold, Pretendard" font-weight="700"><tspan x="-42.349" y="0">합리적 </tspan><tspan x="-55.313" y="45">가격 제안</tspan></text>
    <text id="최상의_품질" data-name="최상의
품질" transform="translate(1145 1986.984)" fill="#fff" font-size="30" font-family="Pretendard-Bold, Pretendard" font-weight="700"><tspan x="-38.892" y="0">최상의</tspan><tspan x="-25.928" y="45">품질</tspan></text>
    <path id="타원_27" data-name="타원 27" d="M127.5,2a126.439,126.439,0,0,0-25.295,2.55A124.8,124.8,0,0,0,57.333,23.432,125.872,125.872,0,0,0,11.862,78.65,124.855,124.855,0,0,0,4.55,102.205a126.744,126.744,0,0,0,0,50.589,124.8,124.8,0,0,0,18.883,44.872A125.872,125.872,0,0,0,78.65,243.138a124.855,124.855,0,0,0,23.555,7.312,126.744,126.744,0,0,0,50.589,0,124.8,124.8,0,0,0,44.872-18.883,125.872,125.872,0,0,0,45.472-55.218,124.856,124.856,0,0,0,7.312-23.555,126.744,126.744,0,0,0,0-50.589,124.8,124.8,0,0,0-18.883-44.872A125.872,125.872,0,0,0,176.35,11.862,124.856,124.856,0,0,0,152.795,4.55,126.439,126.439,0,0,0,127.5,2m0-2A127.5,127.5,0,1,1,0,127.5,127.5,127.5,0,0,1,127.5,0Z" transform="translate(800 1867.984)" fill="#fff"/>
    <path id="패스_46" data-name="패스 46" d="M127.5,2a126.439,126.439,0,0,0-25.295,2.55A124.8,124.8,0,0,0,57.333,23.432,125.872,125.872,0,0,0,11.862,78.65,124.855,124.855,0,0,0,4.55,102.205a126.744,126.744,0,0,0,0,50.589,124.8,124.8,0,0,0,18.883,44.872A125.872,125.872,0,0,0,78.65,243.138a124.855,124.855,0,0,0,23.555,7.312,126.744,126.744,0,0,0,50.589,0,124.8,124.8,0,0,0,44.872-18.883,125.872,125.872,0,0,0,45.472-55.218,124.856,124.856,0,0,0,7.312-23.555,126.744,126.744,0,0,0,0-50.589,124.8,124.8,0,0,0-18.883-44.872A125.872,125.872,0,0,0,176.35,11.862,124.856,124.856,0,0,0,152.795,4.55,126.439,126.439,0,0,0,127.5,2m0-2A127.5,127.5,0,1,1,0,127.5,127.5,127.5,0,0,1,127.5,0Z" transform="translate(1018 1867.984)" fill="#fff"/>
  </g>
</svg>
