<svg xmlns="http://www.w3.org/2000/svg" width="573" height="255" viewBox="0 0 573 255">
  <g id="mission-2" transform="translate(-674 -2980)">
    <g id="그룹_78" data-name="그룹 78" transform="translate(-146 1112.016)">
      <text id="오프라인_브랜드" data-name="오프라인
브랜드" transform="translate(927 1986.984)" fill="#fff" font-size="30" font-family="Pretendard-Bold, Pretendard" font-weight="700" opacity="0.589"><tspan x="-51.855" y="0">오프라인</tspan><tspan x="-38.892" y="45">브랜드</tspan></text>
      <text id="온라인_이커머셜_플랫폼" data-name="온라인
이커머셜
플랫폼" transform="translate(1266 1961.984)" fill="#fff" font-size="30" font-family="Pretendard-Bold, Pretendard" font-weight="700"><tspan x="-38.892" y="0">온라인</tspan><tspan x="-51.855" y="45">이커머셜</tspan><tspan x="-38.892" y="90">플랫폼</tspan></text>
      <path id="패스_49" data-name="패스 49" d="M107.5,2A106.289,106.289,0,0,0,86.236,4.143,104.911,104.911,0,0,0,48.515,20.017,105.814,105.814,0,0,0,10.29,66.435a104.955,104.955,0,0,0-6.146,19.8,106.548,106.548,0,0,0,0,42.528,104.911,104.911,0,0,0,15.873,37.721A105.814,105.814,0,0,0,66.435,204.71a104.955,104.955,0,0,0,19.8,6.146,106.548,106.548,0,0,0,42.528,0,104.911,104.911,0,0,0,37.721-15.873,105.814,105.814,0,0,0,38.225-46.419,104.955,104.955,0,0,0,6.146-19.8,106.548,106.548,0,0,0,0-42.528,104.911,104.911,0,0,0-15.873-37.721A105.814,105.814,0,0,0,148.565,10.29a104.955,104.955,0,0,0-19.8-6.146A106.29,106.29,0,0,0,107.5,2m0-2A107.5,107.5,0,1,1,0,107.5,107.5,107.5,0,0,1,107.5,0Z" transform="translate(820 1887.984)" fill="#fff" opacity="0.589"/>
      <path id="타원_28" data-name="타원 28" d="M127.5,2a126.439,126.439,0,0,0-25.295,2.55A124.8,124.8,0,0,0,57.333,23.432,125.872,125.872,0,0,0,11.862,78.65,124.855,124.855,0,0,0,4.55,102.205a126.744,126.744,0,0,0,0,50.589,124.8,124.8,0,0,0,18.883,44.872A125.872,125.872,0,0,0,78.65,243.138a124.855,124.855,0,0,0,23.555,7.312,126.744,126.744,0,0,0,50.589,0,124.8,124.8,0,0,0,44.872-18.883,125.872,125.872,0,0,0,45.472-55.218,124.856,124.856,0,0,0,7.312-23.555,126.744,126.744,0,0,0,0-50.589,124.8,124.8,0,0,0-18.883-44.872A125.872,125.872,0,0,0,176.35,11.862,124.856,124.856,0,0,0,152.795,4.55,126.439,126.439,0,0,0,127.5,2m0-2A127.5,127.5,0,1,1,0,127.5,127.5,127.5,0,0,1,127.5,0Z" transform="translate(1138 1867.984)" fill="#fff"/>
    </g>
    <path id="패스_50" data-name="패스 50" d="M2963.6,15740.258v55.8l28.906-28.878Z" transform="translate(-2034.503 -12660.656)" fill="#fff"/>
  </g>
</svg>
