<svg xmlns="http://www.w3.org/2000/svg" width="1039" height="499" viewBox="0 0 1039 499">
  <g id="그룹_52" data-name="그룹 52" transform="translate(-499 -345)">
    <g id="그룹_31" data-name="그룹 31" transform="translate(118 75)">
      <rect id="사각형_40" data-name="사각형 40" width="191" height="64" transform="translate(381 433)" fill="#00205e"/>
      <text id="경영지원팀" transform="translate(477 474)" fill="#fff" font-size="24" font-family="Pretendard-Medium, Pretendard" font-weight="500"><tspan x="-51.855" y="0">경영지원팀</tspan></text>
    </g>
    <g id="그룹_35" data-name="그룹 35" transform="translate(118 147)">
      <rect id="사각형_40-2" data-name="사각형 40" width="191" height="60" transform="translate(381 433)" fill="#dbdbdb"/>
      <text id="팀장" transform="translate(477 471.943)" fill="#00205e" font-size="24" font-family="Pretendard-Medium, Pretendard" font-weight="500"><tspan x="-20.742" y="0">팀장</tspan></text>
    </g>
    <g id="그룹_42" data-name="그룹 42" transform="translate(401 147)">
      <rect id="사각형_40-3" data-name="사각형 40" width="191" height="60" transform="translate(381 433)" fill="#dbdbdb"/>
      <text id="팀장-2" data-name="팀장" transform="translate(477 471.943)" fill="#00205e" font-size="24" font-family="Pretendard-Medium, Pretendard" font-weight="500"><tspan x="-20.742" y="0">팀장</tspan></text>
    </g>
    <g id="그룹_46" data-name="그룹 46" transform="translate(683 147)">
      <rect id="사각형_40-4" data-name="사각형 40" width="191" height="60" transform="translate(381 433)" fill="#dbdbdb"/>
      <text id="팀장-3" data-name="팀장" transform="translate(477 471.943)" fill="#00205e" font-size="24" font-family="Pretendard-Medium, Pretendard" font-weight="500"><tspan x="-20.742" y="0">팀장</tspan></text>
    </g>
    <g id="그룹_50" data-name="그룹 50" transform="translate(966 147)">
      <rect id="사각형_40-5" data-name="사각형 40" width="191" height="60" transform="translate(381 433)" fill="#dbdbdb"/>
      <text id="팀장-4" data-name="팀장" transform="translate(477 471.943)" fill="#00205e" font-size="24" font-family="Pretendard-Medium, Pretendard" font-weight="500"><tspan x="-20.742" y="0">팀장</tspan></text>
    </g>
    <g id="그룹_36" data-name="그룹 36" transform="translate(118 215)">
      <rect id="사각형_40-6" data-name="사각형 40" width="191" height="60" transform="translate(381 433)" fill="#dbdbdb"/>
      <text id="사원" transform="translate(477 471.943)" fill="#00205e" font-size="24" font-family="Pretendard-Medium, Pretendard" font-weight="500"><tspan x="-20.742" y="0">사원</tspan></text>
    </g>
    <g id="그룹_41" data-name="그룹 41" transform="translate(401 215)">
      <rect id="사각형_40-7" data-name="사각형 40" width="191" height="60" transform="translate(381 433)" fill="#dbdbdb"/>
      <text id="사원-2" data-name="사원" transform="translate(477 471.943)" fill="#00205e" font-size="24" font-family="Pretendard-Medium, Pretendard" font-weight="500"><tspan x="-20.742" y="0">사원</tspan></text>
    </g>
    <g id="그룹_45" data-name="그룹 45" transform="translate(683 215)">
      <rect id="사각형_40-8" data-name="사각형 40" width="191" height="60" transform="translate(381 433)" fill="#dbdbdb"/>
      <text id="사원-3" data-name="사원" transform="translate(477 471.943)" fill="#00205e" font-size="24" font-family="Pretendard-Medium, Pretendard" font-weight="500"><tspan x="-20.742" y="0">사원</tspan></text>
    </g>
    <g id="그룹_49" data-name="그룹 49" transform="translate(966 215)">
      <rect id="사각형_40-9" data-name="사각형 40" width="191" height="60" transform="translate(381 433)" fill="#dbdbdb"/>
      <text id="사원-4" data-name="사원" transform="translate(477 471.943)" fill="#00205e" font-size="24" font-family="Pretendard-Medium, Pretendard" font-weight="500"><tspan x="-20.742" y="0">사원</tspan></text>
    </g>
    <g id="그룹_37" data-name="그룹 37" transform="translate(118 283)">
      <rect id="사각형_40-10" data-name="사각형 40" width="191" height="60" transform="translate(381 433)" fill="#dbdbdb"/>
      <text id="사원-5" data-name="사원" transform="translate(477 471.943)" fill="#00205e" font-size="24" font-family="Pretendard-Medium, Pretendard" font-weight="500"><tspan x="-20.742" y="0">사원</tspan></text>
    </g>
    <g id="그룹_40" data-name="그룹 40" transform="translate(401 283)">
      <rect id="사각형_40-11" data-name="사각형 40" width="191" height="60" transform="translate(381 433)" fill="#dbdbdb"/>
      <text id="사원-6" data-name="사원" transform="translate(477 471.943)" fill="#00205e" font-size="24" font-family="Pretendard-Medium, Pretendard" font-weight="500"><tspan x="-20.742" y="0">사원</tspan></text>
    </g>
    <g id="그룹_44" data-name="그룹 44" transform="translate(683 283)">
      <rect id="사각형_40-12" data-name="사각형 40" width="191" height="60" transform="translate(381 433)" fill="#dbdbdb"/>
      <text id="사원-7" data-name="사원" transform="translate(477 471.943)" fill="#00205e" font-size="24" font-family="Pretendard-Medium, Pretendard" font-weight="500"><tspan x="-20.742" y="0">사원</tspan></text>
    </g>
    <g id="그룹_48" data-name="그룹 48" transform="translate(966 283)">
      <rect id="사각형_40-13" data-name="사각형 40" width="191" height="60" transform="translate(381 433)" fill="#dbdbdb"/>
      <text id="사원-8" data-name="사원" transform="translate(477 471.943)" fill="#00205e" font-size="24" font-family="Pretendard-Medium, Pretendard" font-weight="500"><tspan x="-20.742" y="0">사원</tspan></text>
    </g>
    <g id="그룹_38" data-name="그룹 38" transform="translate(118 351)">
      <rect id="사각형_40-14" data-name="사각형 40" width="191" height="60" transform="translate(381 433)" fill="#dbdbdb"/>
      <text id="사원-9" data-name="사원" transform="translate(477 471.943)" fill="#00205e" font-size="24" font-family="Pretendard-Medium, Pretendard" font-weight="500"><tspan x="-20.742" y="0">사원</tspan></text>
    </g>
    <g id="그룹_39" data-name="그룹 39" transform="translate(401 351)">
      <rect id="사각형_40-15" data-name="사각형 40" width="191" height="60" transform="translate(381 433)" fill="#dbdbdb"/>
      <text id="사원-10" data-name="사원" transform="translate(477 471.943)" fill="#00205e" font-size="24" font-family="Pretendard-Medium, Pretendard" font-weight="500"><tspan x="-20.742" y="0">사원</tspan></text>
    </g>
    <g id="그룹_43" data-name="그룹 43" transform="translate(683 351)">
      <rect id="사각형_40-16" data-name="사각형 40" width="191" height="60" transform="translate(381 433)" fill="#dbdbdb"/>
      <text id="사원-11" data-name="사원" transform="translate(477 471.943)" fill="#00205e" font-size="24" font-family="Pretendard-Medium, Pretendard" font-weight="500"><tspan x="-20.742" y="0">사원</tspan></text>
    </g>
    <g id="그룹_47" data-name="그룹 47" transform="translate(966 351)">
      <rect id="사각형_40-17" data-name="사각형 40" width="191" height="60" transform="translate(381 433)" fill="#dbdbdb"/>
      <text id="사원-12" data-name="사원" transform="translate(477 471.943)" fill="#00205e" font-size="24" font-family="Pretendard-Medium, Pretendard" font-weight="500"><tspan x="-20.742" y="0">사원</tspan></text>
    </g>
    <g id="그룹_33" data-name="그룹 33" transform="translate(171 75)">
      <rect id="사각형_43" data-name="사각형 43" width="191" height="64" transform="translate(893 433)" fill="#00205e"/>
      <text id="바이저팀" transform="translate(989 474)" fill="#fff" font-size="24" font-family="Pretendard-Medium, Pretendard" font-weight="500"><tspan x="-41.484" y="0">바이저팀</tspan></text>
    </g>
    <g id="그룹_32" data-name="그룹 32" transform="translate(155 75)">
      <rect id="사각형_41" data-name="사각형 41" width="191" height="64" transform="translate(627 433)" fill="#00205e"/>
      <text id="디자인팀" transform="translate(723 474)" fill="#fff" font-size="24" font-family="Pretendard-Medium, Pretendard" font-weight="500"><tspan x="-41.484" y="0">디자인팀</tspan></text>
    </g>
    <g id="그룹_51" data-name="그룹 51" transform="translate(296 -88)">
      <rect id="사각형_41-2" data-name="사각형 41" width="191" height="64" transform="translate(627 433)" fill="#fff"/>
      <path id="사각형_41_-_윤곽선" data-name="사각형 41 - 윤곽선" d="M2,2V62H189V2H2M0,0H191V64H0Z" transform="translate(627 433)" fill="#00205e"/>
      <text id="CEO" transform="translate(723 476)" fill="#00205e" font-size="30" font-family="Pretendard-Medium, Pretendard" font-weight="500"><tspan x="-30.205" y="0">CEO</tspan></text>
    </g>
    <g id="그룹_34" data-name="그룹 34" transform="translate(208 75)">
      <rect id="사각형_42" data-name="사각형 42" width="191" height="64" transform="translate(1139 433)" fill="#00205e"/>
      <text id="영업관리팀" transform="translate(1235 474)" fill="#fff" font-size="24" font-family="Pretendard-Medium, Pretendard" font-weight="500"><tspan x="-51.855" y="0">영업관리팀</tspan></text>
    </g>
    <path id="선_6" data-name="선 6" d="M848,.5H0v-1H848Z" transform="translate(594.5 458.398)" fill="#00205e"/>
    <path id="선_7" data-name="선 7" d="M.5,50.1h-1V0h1Z" transform="translate(594.5 458.398)" fill="#00205e"/>
    <path id="선_10" data-name="선 10" d="M.5,50.1h-1V0h1Z" transform="translate(1018.5 408.297)" fill="#00205e"/>
    <path id="선_8" data-name="선 8" d="M.5,50.1h-1V0h1Z" transform="translate(1442.5 458.398)" fill="#00205e"/>
    <path id="선_9" data-name="선 9" d="M.5,50.1h-1V0h1Z" transform="translate(1160.5 458.398)" fill="#00205e"/>
    <path id="패스_41" data-name="패스 41" d="M.5,50.1h-1V0h1Z" transform="translate(877.5 458.398)" fill="#00205e"/>
  </g>
</svg>
