<svg xmlns="http://www.w3.org/2000/svg" width="525" height="487" viewBox="0 0 525 487">
  <g id="vision" transform="translate(-1000 -1331)">
    <circle id="타원_11" data-name="타원 11" cx="143" cy="143" r="143" transform="translate(1118 1344)" fill="#00205e" opacity="0.096"/>
    <circle id="타원_12" data-name="타원 12" cx="143" cy="143" r="143" transform="translate(1015 1518)" fill="#00205e" opacity="0.096"/>
    <ellipse id="타원_13" data-name="타원 13" cx="143.5" cy="143" rx="143.5" ry="143" transform="translate(1226 1518)" fill="#00205e" opacity="0.096"/>
    <text id="명확한_비전" data-name="명확한 비전" transform="translate(1261 1489)" fill="#00205e" font-size="34" font-family="Pretendard-Bold, Pretendard" font-weight="700"><tspan x="-77.38" y="0">명확한 비전</tspan></text>
    <text id="VISION-2" data-name="VISION" transform="translate(1261 1444)" fill="#00205e" font-size="19" font-family="Pretendard-Bold, Pretendard" font-weight="700"><tspan x="-31.738" y="0">VISION</tspan></text>
    <text id="전략" transform="translate(1147 1693)" fill="#00205e" font-size="34" font-family="Pretendard-Bold, Pretendard" font-weight="700"><tspan x="-29.385" y="0">전략</tspan></text>
    <text id="STRATEGY" transform="translate(1147 1648)" fill="#00205e" font-size="19" font-family="Pretendard-Bold, Pretendard" font-weight="700"><tspan x="-49.073" y="0">STRATEGY</tspan></text>
    <text id="자금운용" transform="translate(1386 1693)" fill="#00205e" font-size="34" font-family="Pretendard-Bold, Pretendard" font-weight="700"><tspan x="-58.77" y="0">자금운용</tspan></text>
    <text id="Fund" transform="translate(1386 1646)" fill="#00205e" font-size="19" font-family="Pretendard-Bold, Pretendard" font-weight="700"><tspan x="-25.429" y="0">FUND</tspan></text>
    <g id="그룹_53" data-name="그룹 53" transform="translate(53 86)">
      <path id="타원_14" data-name="타원 14" d="M143,2a142.052,142.052,0,0,0-28.419,2.865A140.216,140.216,0,0,0,64.167,26.079,141.417,141.417,0,0,0,13.08,88.117a140.274,140.274,0,0,0-8.215,26.464,142.394,142.394,0,0,0,0,56.837,140.216,140.216,0,0,0,21.215,50.414A141.417,141.417,0,0,0,88.117,272.92a140.274,140.274,0,0,0,26.464,8.215,142.394,142.394,0,0,0,56.837,0,140.216,140.216,0,0,0,50.414-21.215,141.417,141.417,0,0,0,51.087-62.038,140.274,140.274,0,0,0,8.215-26.464,142.394,142.394,0,0,0,0-56.837,140.216,140.216,0,0,0-21.215-50.415A141.417,141.417,0,0,0,197.883,13.08a140.274,140.274,0,0,0-26.464-8.215A142.052,142.052,0,0,0,143,2m0-2A143,143,0,1,1,0,143,143,143,0,0,1,143,0Z" transform="translate(1064 1258)" fill="#00205e"/>
      <path id="타원_15" data-name="타원 15" d="M143,2a142.052,142.052,0,0,0-28.419,2.865A140.216,140.216,0,0,0,64.167,26.079,141.417,141.417,0,0,0,13.08,88.117a140.274,140.274,0,0,0-8.215,26.464,142.394,142.394,0,0,0,0,56.837,140.216,140.216,0,0,0,21.215,50.414A141.417,141.417,0,0,0,88.117,272.92a140.274,140.274,0,0,0,26.464,8.215,142.394,142.394,0,0,0,56.837,0,140.216,140.216,0,0,0,50.414-21.215,141.417,141.417,0,0,0,51.087-62.038,140.274,140.274,0,0,0,8.215-26.464,142.394,142.394,0,0,0,0-56.837,140.216,140.216,0,0,0-21.215-50.415A141.417,141.417,0,0,0,197.883,13.08a140.274,140.274,0,0,0-26.464-8.215A142.052,142.052,0,0,0,143,2m0-2A143,143,0,1,1,0,143,143,143,0,0,1,143,0Z" transform="translate(961 1432)" fill="#00205e"/>
      <path id="타원_16" data-name="타원 16" d="M143.5,2a143.043,143.043,0,0,0-28.521,2.865,140.98,140.98,0,0,0,0,276.27,143.4,143.4,0,0,0,57.041,0,140.98,140.98,0,0,0,0-276.27A143.043,143.043,0,0,0,143.5,2m0-2C222.753,0,287,64.023,287,143S222.753,286,143.5,286,0,221.977,0,143,64.247,0,143.5,0Z" transform="translate(1172 1432)" fill="#00205e"/>
    </g>
    <g id="그룹_54" data-name="그룹 54" transform="translate(54 86)" opacity="0.24">
      <path id="타원_17" data-name="타원 17" d="M156,1a156.15,156.15,0,0,0-31.239,3.149A154.145,154.145,0,0,0,69.339,27.471a155.455,155.455,0,0,0-56.158,68.2,154.215,154.215,0,0,0-9.031,29.094,156.52,156.52,0,0,0,0,62.478,154.145,154.145,0,0,0,23.322,55.422,155.455,155.455,0,0,0,68.2,56.158,154.215,154.215,0,0,0,29.094,9.031,156.52,156.52,0,0,0,62.478,0,154.145,154.145,0,0,0,55.422-23.322,155.455,155.455,0,0,0,56.158-68.2,154.215,154.215,0,0,0,9.031-29.094,156.52,156.52,0,0,0,0-62.478,154.145,154.145,0,0,0-23.322-55.422,155.455,155.455,0,0,0-68.2-56.158,154.215,154.215,0,0,0-29.094-9.031A156.15,156.15,0,0,0,156,1m0-1A156,156,0,1,1,0,156,156,156,0,0,1,156,0Z" transform="translate(1050 1245)" fill="#00205e"/>
      <path id="타원_18" data-name="타원 18" d="M156,1a156.15,156.15,0,0,0-31.239,3.149A154.145,154.145,0,0,0,69.339,27.471a155.455,155.455,0,0,0-56.158,68.2,154.215,154.215,0,0,0-9.031,29.094,156.52,156.52,0,0,0,0,62.478,154.145,154.145,0,0,0,23.322,55.422,155.455,155.455,0,0,0,68.2,56.158,154.215,154.215,0,0,0,29.094,9.031,156.52,156.52,0,0,0,62.478,0,154.145,154.145,0,0,0,55.422-23.322,155.455,155.455,0,0,0,56.158-68.2,154.215,154.215,0,0,0,9.031-29.094,156.52,156.52,0,0,0,0-62.478,154.145,154.145,0,0,0-23.322-55.422,155.455,155.455,0,0,0-68.2-56.158,154.215,154.215,0,0,0-29.094-9.031A156.15,156.15,0,0,0,156,1m0-1A156,156,0,1,1,0,156,156,156,0,0,1,156,0Z" transform="translate(946 1420)" fill="#00205e"/>
      <path id="타원_19" data-name="타원 19" d="M156,1a156.15,156.15,0,0,0-31.239,3.149A154.145,154.145,0,0,0,69.339,27.471a155.455,155.455,0,0,0-56.158,68.2,154.215,154.215,0,0,0-9.031,29.094,156.52,156.52,0,0,0,0,62.478,154.145,154.145,0,0,0,23.322,55.422,155.455,155.455,0,0,0,68.2,56.158,154.215,154.215,0,0,0,29.094,9.031,156.52,156.52,0,0,0,62.478,0,154.145,154.145,0,0,0,55.422-23.322,155.455,155.455,0,0,0,56.158-68.2,154.215,154.215,0,0,0,9.031-29.094,156.52,156.52,0,0,0,0-62.478,154.145,154.145,0,0,0-23.322-55.422,155.455,155.455,0,0,0-68.2-56.158,154.215,154.215,0,0,0-29.094-9.031A156.15,156.15,0,0,0,156,1m0-1A156,156,0,1,1,0,156,156,156,0,0,1,156,0Z" transform="translate(1159 1419)" fill="#00205e"/>
    </g>
  </g>
</svg>
