<svg xmlns="http://www.w3.org/2000/svg" xmlns:xlink="http://www.w3.org/1999/xlink" width="244.66" height="49.507" viewBox="0 0 244.66 49.507">
  <defs>
    <clipPath id="clip-path">
      <rect id="사각형_20" data-name="사각형 20" width="244.66" height="49.507" fill="#fff"/>
    </clipPath>
  </defs>
  <g id="그룹_24" data-name="그룹 24" transform="translate(0 0)">
    <g id="그룹_12" data-name="그룹 12" transform="translate(0 0)" clip-path="url(#clip-path)">
      <path id="패스_29" data-name="패스 29" d="M329.652,27.217c6.124,1.016,6.2,2.116,6.176-4.785,0-.442,0-.884,0-1.326,0-5.678,0-5.67-5.047-3.409a4.136,4.136,0,0,1-4.651-.6c-.868-.734-1.6-1.672-1.169-2.876.388-1.092,1.5-.634,2.318-.755.217-.032.445.017.662-.011,2.47-.317,5.89,1.254,7.225-.783,1.618-2.468.4-6.017.521-9.094.084-2.124-2.289-1.35-3.068-2.817,1.923-1.3,4-.593,5.892-.375,6.787.779,6.779.849,6.779,7.727,0,4.09-.141,8.186.038,12.269.186,4.2.052,8.077-5.491,9.352,3.988,3.077,6.723,6.275,5.341,11.038-1.453,5.011-5.673,6.814-10.245,7.8A21.722,21.722,0,0,1,321.6,47.5c-3.753-1.6-6.765-4.062-6.979-8.46s2.606-7.068,6.143-9.087c.858-.49,1.774-.879,2.693-1.33.08-1.116-.942-1.416-1.5-1.948-1.85-1.76-1.984-5.62-4.34-5.792-1.861-.135-3.847,2.592-5.911,3.828a38.5,38.5,0,0,1-9.539,3.714c-.688.193-1.641.755-2.073-.168-.473-1.007.663-1.221,1.256-1.57,6.938-4.078,9.263-10.559,9.663-18.141.115-2.168-.28-3.677-3.06-3.693,2.164-1.564,8.876-1.8,10.83-.531,2.613,1.693,2.588,4.315,1.857,6.816-1.047,3.579.21,5.506,3.593,6.665a16.46,16.46,0,0,1,3.908,2.464c2.442,1.744,3.643,3.871,1.513,6.954m6.523,11.556c.036-5.237-2.376-8.76-6.028-8.8-3.479-.042-5.851,2.9-6.168,7.639-.346,5.186,1.611,8.594,5.174,9,4.394.506,6.985-2.387,7.022-7.841" transform="translate(-100.883 0)" fill="#fff"/>
      <path id="패스_30" data-name="패스 30" d="M234.789,1.023c3.973-1.209,7.706.031,11.466.249,1.275.074,1.262,1.345,1.263,2.351.007,6.746-.015,13.491.011,20.237.015,3.715-3.143,4.384-5.56,5.79.181,1.364,1.45,1.635,2.2,2.346,4.663,4.44,4.3,10.43-.907,14.187-5.774,4.162-16.83,4.156-22.65-.013-5.2-3.727-5.592-9.981-.7-14.1a17.894,17.894,0,0,1,14.89-3.991c2.692.435,3.358-.544,3.163-2.969-.208-2.6-1.193-3.232-3.31-1.674-2.157,1.588-4.174,1.935-6.3.171a2.4,2.4,0,0,1-.991-2.34c.264-1.194,1.344-.9,2.176-.986.439-.047.884-.017,1.326-.021,7.89-.089,7.89-.089,6.734-8.473-2.476,1.665-5,2.477-7.775-.015-.97,9.4-7.283,13.356-15.072,15.8-3.159.99-6.378,1.785-9.565,2.685-.95.267-1.884.253-2.2-.8-.295-.98.681-1.265,1.351-1.583a49.761,49.761,0,0,0,10.7-6.573c3.921-3.261,4.36-7.733,4.718-12.28.1-1.28-.749-1.755-1.925-1.663-3.374.264-6.869-.792-10.108.933a2.372,2.372,0,0,1-2.5-.279c-.642-.388-1.526-.67-1.256-1.668.224-.825,1.037-.706,1.666-.711,3.1-.027,6.193-.063,9.289-.006a17.368,17.368,0,0,0,8.359-1.461c2.611-1.291,5.658.331,6.826,3.171,1.3,3.161,4.007,1.168,6.03,1.5,2.055.336,1.568-1.541,1.769-2.78.407-2.513-.419-4.195-3.123-5.035m3.145,37.944c.013-5.263-1.808-8.194-5.312-8.55-4.391-.446-7.323,3.471-6.827,9.123.417,4.767,2.193,7.086,5.59,7.3,4.292.271,6.535-2.426,6.548-7.873" transform="translate(-68.248 -0.169)" fill="#fff"/>
      <path id="패스_31" data-name="패스 31" d="M38.782,15.053c0-2.765.063-5.532-.023-8.294-.062-2.027.927-4.714-2.637-4.939-.188-.012-.469-.451-.5-.714-.068-.6.482-.765.881-.731A91.031,91.031,0,0,1,47.027,1.447c2.172.441,1.3,2.768,1.326,4.294.039,2.272.1,3.907,2.932,1.929a3.563,3.563,0,0,1,4.08.236c1.047.678,2.017,1.619,1.74,2.969-.322,1.567-1.771.927-2.77,1.012a24.949,24.949,0,0,1-3.646.024c-1.767-.11-2.223.772-2.314,2.392-.265,4.719.127,5.043,4.305,3.05a4.185,4.185,0,0,1,3.822-.043c1.276.624,2.351,1.644,2.1,3.066-.26,1.5-1.788.863-2.8.961a13.91,13.91,0,0,1-2.982,0c-3.058-.366-4.955.358-4.485,4.018a4.1,4.1,0,0,1-2.165,4.2c-1.718.954-1.769,1.538-.356,3.027C50.393,37.4,49.528,43.54,43.7,46.76a20.531,20.531,0,0,1-20.909.022c-6.489-3.624-6.784-10.672-.866-15.2A18.208,18.208,0,0,1,35.4,28.126c2.569.277,3.636-.33,3.437-3.123-.236-3.3-.056-6.632-.057-9.95m-11.491,23.8a20.385,20.385,0,0,0,.013,2.306c.414,3.606,2.407,5.62,5.61,5.736,3.451.125,5.146-1.381,6.129-5.119a12.3,12.3,0,0,0-.642-7.741,5.228,5.228,0,0,0-6-3.547c-3.293.374-5.158,3.383-5.113,8.365" transform="translate(-5.951 -0.124)" fill="#fff"/>
      <path id="패스_32" data-name="패스 32" d="M118.746,25.9c-4.3,6.818-10.5,10.159-17.048,13-.794.344-1.926,1.3-2.557-.114-.484-1.081.735-1.466,1.373-1.957,8.072-6.208,10.627-14.85,10.986-24.52.08-2.148-.908-2.671-2.8-2.588a8.138,8.138,0,0,0-3.139.949c-1.362.635-2.322-.209-3.3-.9-.356-.252-.66-.691-.353-1.141.7-1.017,1.8-.625,2.734-.634,4.424-.043,8.85-.085,13.273.009a15.444,15.444,0,0,0,8.027-1.542,2.867,2.867,0,0,1,2.838-.4c1.281.713,3.615.808,3.408,2.576-.222,1.9-2.365,1.01-3.649,1.033-6.147.112-5.8.139-7.114,6.247-.824,3.822-.044,6.17,3.083,8.38a22.921,22.921,0,0,1,6.716,7.264c1.778,3.1,1.2,6.247-1.3,7.537-2.582,1.332-5.2.08-6.764-3.307-1.426-3.1-2.782-6.224-4.412-9.885" transform="translate(-33.304 -1.955)" fill="#fff"/>
      <path id="패스_33" data-name="패스 33" d="M150.087,1.074c4-.911,7.741.014,11.491.413,1.3.138,1.2,1.41,1.2,2.4.006,13.053.041,26.105-.03,39.157-.016,3.174-5.137,6.822-8.209,6.028-1.674-.433-1.266-1.9-1.276-3.019-.064-7.078-.059-14.158-.067-21.237-.007-6.084-.1-12.17.05-18.25.063-2.513-.139-4.553-3.157-5.491" transform="translate(-50.474 -0.231)" fill="#fff"/>
      <path id="패스_34" data-name="패스 34" d="M14.009,30.192C6.1,30.155.083,25,0,18.2-.083,11.226,6.594,5.26,14.457,5.283,22.125,5.3,28.61,11.29,28.484,18.228c-.123,6.778-6.441,12-14.475,11.963m5.636-11.734c0-3.71-.573-6.458-1.585-8.066-1.968-3.124-6.131-3.249-7.789.03a16.555,16.555,0,0,0-.336,14.349,4.176,4.176,0,0,0,4.208,2.609,4.4,4.4,0,0,0,4.242-2.589,12.975,12.975,0,0,0,1.261-6.333" transform="translate(0 -1.777)" fill="#fff"/>
    </g>
  </g>
</svg>
