<svg id="그룹_9" data-name="그룹 9" xmlns="http://www.w3.org/2000/svg" xmlns:xlink="http://www.w3.org/1999/xlink" width="187.461" height="62.158" viewBox="0 0 187.461 62.158">
  <defs>
    <clipPath id="clip-path">
      <rect id="사각형_16" data-name="사각형 16" width="187.461" height="62.158" fill="#fff"/>
    </clipPath>
  </defs>
  <g id="그룹_8" data-name="그룹 8" clip-path="url(#clip-path)">
    <path id="패스_17" data-name="패스 17" d="M36.964,52.558c-1.1-.168-2.106-.3-3.1-.476-3.577-.644-5.358-2.687-5.418-6.327q-.079-4.783,0-9.568c.019-1.154-.371-1.58-1.551-1.629-5.248-.217-5.285-.249-5.456,4.937-.217,6.617-.5,13.232-.1,19.857.246,4.105-2.518,7.1-6.858,7.49a22.735,22.735,0,0,1-6.661-.217c-2.971-.616-4.878-2.894-6.991-4.8a3.308,3.308,0,0,1-.678-1.651c-.242-1.026-.319-2.178.652-2.8s1.684.347,2.294.936a13.963,13.963,0,0,0,9.025,3.624c3.01.236,3.653-.364,3.771-3.358.275-6.988-.173-13.961-.447-20.938-.129-3.291-.145-3.29-3.362-2.291a4.011,4.011,0,0,1-5.284-4.034c0-.883.509-.969,1.165-.961,1.745.02,3.5-.032,5.235.087,1.394.1,1.8-.446,1.692-1.77a25.671,25.671,0,0,1,.012-3.97c.093-1.224-.446-1.332-1.387-1.011-.228.078-.454.161-.683.236C9.324,25.082,7.878,24.3,6.9,20.713c-.282-1.034-.1-1.616,1.15-1.563,1.683.071,3.375-.021,5.055.08,1.268.076,1.751-.241,1.835-1.651a7.629,7.629,0,0,0-1.6-5.562c-.671-.825-1.06-1.683-.342-2.6.773-.986,1.727-.491,2.627-.119,1.166.483,2.31,1.042,3.51,1.419a2.69,2.69,0,0,1,2.092,2.94c-.029,1.263.1,2.539-.037,3.788-.132,1.218.374,1.509,1.463,1.674,1.517.23,3-.169,4.5-.008.624.067.834-.324.852-.892.077-2.518.424-5.1-1.884-6.987a4.074,4.074,0,0,1-.985-1.282c-.534-1.042-.251-1.7.985-1.91a6.853,6.853,0,0,1,8.13,6.383c.095,1.485-.624,3.36.357,4.355s2.873.261,4.36.372c2.006.15,3.014,1.163,3,3.079a2.347,2.347,0,0,1-2.777,2.536,9.377,9.377,0,0,1-3.234-1.083c-1-.488-1.745-.492-1.689.987.057,1.5.041,3.011-.015,4.515-.03.8.289,1.048,1.04,1.07,1.383.042,2.766.13,4.144.249a2.771,2.771,0,0,1,2.558,3.221c-.205,1.709-1.412,2.513-3.275,2.118a12.091,12.091,0,0,1-3.053-1.079c-.495-.255-1.4-.473-1.367.465.113,3.258-.894,6.451-.474,9.72a2.3,2.3,0,0,0,2.386,2.211c.78.061,1.42.04,1.67-.906a2.27,2.27,0,0,1,2.137-1.672c1.689-.2,3.3-1.157,5.11-.324.766.352,1.16-.673,1.749-1.029.638-.385,1.171-1.234,2.047-.67a2.162,2.162,0,0,1,.727,2.124,3.981,3.981,0,0,1-1,2.66c-.9.87-.637,1.646-.326,2.595,1.133,3.459,1.87,6.953,1.188,10.641A8.672,8.672,0,0,1,38.95,67.7a4.169,4.169,0,0,1-2.53-1.908,10.548,10.548,0,0,1,.216-12.576,4.369,4.369,0,0,0,.328-.658m10.544-3.565-.456.05c.339,1.191.694,2.377,1.012,3.574.406,1.528.226,2.884-1.274,3.766-1.274.749-3.717.706-4.439-.169-1.143-1.385-.713-2.868.1-4.2a4.484,4.484,0,0,0,.616-3.6c-.223-.951-.512-2.04.564-2.8.335-.235,1.121-.4.606-.961-.459-.5-1.141-.242-1.568.29a3.656,3.656,0,0,0-.547,2.584,7.2,7.2,0,0,1-1.18,4.8c-2.91,3.913-3.081,7.666-.6,11.842,1.728,2.907,4.365,3.209,6.652.7a6.682,6.682,0,0,0,1.351-2.11c1.743-4.73.869-9.291-.839-13.777M21.267,26.714c0,4.112,0,4.112,4.174,3.567,2.41-.315,2.41-.315,2.557-3.9.13-3.167.13-3.167-3.034-3.249-3.7-.095-3.7-.095-3.7,3.58" transform="translate(0 -6.491)" fill="#fff"/>
    <path id="패스_19" data-name="패스 19" d="M297.563,27.2a7.619,7.619,0,0,1,6.587,2c1.571,1.591,1.975,3.029,1.06,4.422a3.3,3.3,0,0,1-4.246.564c-2.769-2.224-5.783-1.259-8.747-1.265-4.991-.012-9.987.1-14.972-.076-2.135-.075-4.1.767-6.2.675-2.285-.1-5.23-2.877-5.244-5.137-.007-1.184.745-1.359,1.865-1.252,2.566.246,5.151.3,7.729.425,1.085.053,1.748-.313,1.579-1.558a6.248,6.248,0,0,1,.038-1.08c.117-2.814.117-2.814-2.675-2.728-1.585.049-4.95-3.034-4.98-4.547-.012-.63.39-.865.9-.921,1.012-.111,2.207-.54,3.015-.166,2.659,1.229,5.321.551,7.952.306,2.7-.251,5.406-.17,8.1-.373,2.558-.193,5.1-.024,7.648.023a6.244,6.244,0,0,1,4.82,2.04,3,3,0,0,1,.521,3.486,2.5,2.5,0,0,1-2.6,1.551c-1.179.008-2.382.235-3.442-.661a2.3,2.3,0,0,0-2.415-.148c-.892.378-.467,1.244-.425,1.924.15,2.416.158,2.415,4.136,2.492M287.471,24.47c-.358-.74.525-2.133-.525-2.476a6.68,6.68,0,0,0-3.878.01c-.889.283-.386,1.608-.4,2.458-.051,3.247.079,3.325,3.406,3.133.921-.053,1.5-.322,1.4-1.378-.046-.535-.008-1.077-.008-1.747" transform="translate(-217.624 -13.426)" fill="#fff"/>
    <path id="패스_20" data-name="패스 20" d="M258.03,130.319c4.776.316,9.951.329,15.111.418a73.638,73.638,0,0,0,9.493-.388,97.577,97.577,0,0,1,11.348-.156,7.9,7.9,0,0,1,3.4,1.125,1.8,1.8,0,0,1,.857.881c.932,1.95-.727,5.062-2.877,5.312a8.967,8.967,0,0,1-5.185-1.221,17.552,17.552,0,0,0-11.036-1.691c-1.143.182-1.865.487-1.249,1.829a2.589,2.589,0,0,1,.169,1.06c-.032,8.363-.026,16.727-.144,25.089a5.3,5.3,0,0,1-5.054,5.13c-1.205,0-1.685-.4-1.679-1.666.032-5.957-.027-11.914-.033-17.87,0-3.791,0-7.582.063-11.372.02-1.232-.268-1.786-1.686-1.893a39.171,39.171,0,0,0-11.782,1.114c-3.5.8-6.08-.98-6.769-4.532-.222-1.144.488-1.166,1.261-1.168,1.8,0,3.6,0,5.791,0" transform="translate(-205.451 -106.521)" fill="#fff"/>
    <path id="패스_21" data-name="패스 21" d="M540.106,120.718a110.082,110.082,0,0,1,12.191.133c4.27.143,8.5-.5,12.743-.152a32.724,32.724,0,0,0,7.382-.235,12.488,12.488,0,0,1,5.371.314c1.874.555,3.188,2.292,2.826,3.65a3.978,3.978,0,0,1-4.412,2.566,14.222,14.222,0,0,1-2.778-.772c-4-1.72-8.2-1.193-12.355-1.152-.782.008-1.007.448-.983,1.178a3.368,3.368,0,0,1-.192,1.585c-.754,1.462-1.244,2.842-.533,4.533a2.159,2.159,0,0,1-.953,2.511,62.291,62.291,0,0,1-13.816,8.742c-1.849.789-3.9.679-5.875.75-.655.024-1.668.113-1.625-.924a2.146,2.146,0,0,1,1.311-2.17c5.407-1.773,9.888-5.039,14.12-8.706.951-.824.661-1.852.318-2.84-.4-1.165-.889-2.311.609-3.116a.731.731,0,0,0,.3-.948c-.166-.421-.569-.392-.919-.39-3.892.022-7.784-.351-11.608.963s-6.039.262-7.572-3.166c-.71-1.588-.336-2.285,1.36-2.341,1.742-.057,3.488-.013,5.091-.013" transform="translate(-436.644 -98.504)" fill="#fff"/>
    <path id="패스_22" data-name="패스 22" d="M596.288,24.812a22.94,22.94,0,0,1-5.739-.327c-.322-.044-.777-.157-.931.291-.148.432.249.634.528.832a9.608,9.608,0,0,0,3.4,1.632c3.21.723,5.54,3,8.268,4.565,1.051.6,1.984,1.809,1.392,3.027a3.329,3.329,0,0,1-3.127,1.609c-2.377-.166-4.864-.35-6.107-3-.429-.916-1.58-1.046-2.259-1.737-.588-.6-1.307-1.074-1.861-1.7-1.8-2.028-3.058-2.064-4.824.083a16.847,16.847,0,0,1-12.034,6.43c-1.023.085-2.434.474-2.874-.715-.481-1.3.966-1.731,1.821-2.316,3.317-2.27,6.88-4.208,9.653-7.209.349-.377,1.073-.674.682-1.271s-1.079-.308-1.629-.041a7.229,7.229,0,0,1-8.1-1.346,3.277,3.277,0,0,1-.994-2.425c.017-1.152.371-1.627,1.622-1.449a107.51,107.51,0,0,0,20.162.572c2.133-.1,4.055-1.164,6.184-1.112,1.069.026,2.371-.082,2.866,1.044.46,1.047,1.172,2.189.2,3.5a2.587,2.587,0,0,1-2.148,1.052c-1.258.073-2.524.019-4.149.019" transform="translate(-466.699 -15.72)" fill="#fff"/>
    <path id="패스_23" data-name="패스 23" d="M942.175,18.447c0-3.123-.171-6.258.057-9.364A7.967,7.967,0,0,0,940.5,3.25c-.406-.515-.958-1.111-.4-1.752.622-.712,1.49-1.71,2.328-1.458a17.7,17.7,0,0,1,3.1.73A3.98,3.98,0,0,1,947.8,4.226c.085,1.92.155,3.844.14,5.765-.008.995.3,1.409,1.338,1.368,1.56-.063,3.124-.024,4.687-.008,1.179.012,2.893,2.009,2.992,3.458a3.036,3.036,0,0,1-2.609,2.737c-1.676.087-3.36.058-5.039.009-1.156-.034-1.589.369-1.533,1.588.12,2.64.143,5.287.1,7.93-.026,1.687-.189,3.406-1.577,4.636-.671.594-1.19,1.725-2.383,1.119a3.089,3.089,0,0,1-1.894-2.841c-.019-2.524-.058-5.047-.08-7.571-.011-1.322,0-2.645,0-3.967h.234" transform="translate(-769.498 0)" fill="#fff"/>
    <path id="패스_24" data-name="패스 24" d="M833.325,173.838q3.875,0,7.751,0a7.147,7.147,0,0,0,2.6-.657c3.106-1.212,5.259-.683,7.452,1.745a2.588,2.588,0,0,1-1.371,4.3,7.009,7.009,0,0,1-2.153.068c-8.693-1.038-17.413-.123-26.117-.368-2.209-.062-3.268-.892-3.2-3.122a27.572,27.572,0,0,0-.565-7.875,7.438,7.438,0,0,0-1.4-3.457,1.3,1.3,0,0,1-.217-1.663c.422-.656,1.007-.46,1.6-.268a14.745,14.745,0,0,0,3.711.622c1.688.1,2.271,1.384,2.338,2.873.1,2.158.128,4.321.117,6.481-.006,1.1.433,1.434,1.513,1.406,2.643-.068,5.29-.022,7.934-.022v-.06" transform="translate(-668.003 -132.925)" fill="#fff"/>
    <path id="패스_25" data-name="패스 25" d="M823.691,36.178c0-3.128-.042-6.257.021-9.384.024-1.172-.43-1.615-1.554-1.675a12.989,12.989,0,0,0-5.877.537c-2.4,1.011-5.588-2.609-5.342-5.132.078-.8.6-1.156,1.571-.874a17.559,17.559,0,0,0,10.369-.046c3.573-1.142,6.488.729,6.5,4.439.022,5.294.071,10.588.028,15.882a6.6,6.6,0,0,1-4.3,6.476c-1.037.374-1.512.322-1.469-1.02.1-3.065.031-6.135.031-9.2h.013" transform="translate(-663.935 -15.779)" fill="#fff"/>
    <path id="패스_26" data-name="패스 26" d="M689.725,203.777c-1.14-.376-3.211-.52-4.529-2.265a3.683,3.683,0,0,0-1.288-.93,70.264,70.264,0,0,1-7.687-4.716c-.521-.387-1.275-.921-.677-1.585.651-.724,1.05-2.273,2.418-1.7,3.861,1.617,8.179,2.117,11.6,4.842.9.718,2.219.839,3.031,1.822a1.942,1.942,0,0,1,.338,2.479c-.631.9-.748,2.485-3.206,2.052" transform="translate(-552.913 -157.571)" fill="#fff"/>
    <path id="패스_27" data-name="패스 27" d="M235.773,282.151a10.58,10.58,0,0,1-1.736,4.469c-.69,1.081-1.638,1.86-3,1.383a2.961,2.961,0,0,1-2-3.093c.02-2.019,3.369-5.164,5.375-5.082.947.039,1.373.706,1.355,2.323" transform="translate(-187.525 -229.104)" fill="#fff"/>
    <path id="패스_28" data-name="패스 28" d="M219.207,274.3c.921.262,2,.766,1.84,1.666a3.053,3.053,0,0,1-2.037,2.461c-1.112.2-1.015-1.08-1.044-1.87-.035-.957-.017-1.965,1.241-2.256" transform="translate(-178.45 -224.577)" fill="#fff"/>
  </g>
</svg>
